<svg width="564" height="65" viewBox="0 0 564 65" fill="none" xmlns="http://www.w3.org/2000/svg">
<path d="M382.821 0.819336H366.848L351.175 25.7403L334.71 0.819336H315.645L343.44 40.8347V63.3307H358.532V40.9762L382.821 0.819336Z" fill="white"/>
<path d="M203.004 38.5915C212.83 36.2395 217.675 28.6209 217.675 20.0245C217.675 9.76334 210.605 0.819336 195.727 0.819336H162.158V63.3307H177.135V40.164H186.802L200.233 59.4881C201.906 61.8952 204.652 63.3307 207.583 63.3307H220.244L203.004 38.5915ZM193.849 27.307H177.17V13.7288H193.849C199.127 13.7288 202.251 15.8913 202.251 20.4789C202.251 25.0664 199.127 27.307 193.849 27.307Z" fill="white"/>
<path d="M285.973 37.1112L260.688 0.819336H243.457V63.3313H258.175V22.0193L287.656 63.3313H300.24V0.819336H285.973V37.1112Z" fill="white"/>
<path d="M121.552 37.3633C121.552 46.5396 116.635 50.8289 108.442 50.8289C100.249 50.8289 95.2494 46.299 95.2494 37.3633V0.819336H80.1699V37.3633C80.1699 54.8744 90.6977 64.7592 108.448 64.7592C126.2 64.7592 136.413 54.8744 136.413 37.3633V0.819336H121.552V37.3633Z" fill="white"/>
<path d="M45.2605 30.7918C50.2462 28.6555 53.0713 24.1608 53.0713 18.7061C53.0713 10.6216 47.455 0.819336 32.0926 0.819336H0.285156V63.3307H33.2456C49.1733 63.3307 55.4861 56.9774 55.4861 45.444C55.4861 37.1585 49.9274 32.404 45.2605 30.7918ZM15.0721 13.5259H29.576C35.3684 13.5259 37.6871 15.5061 37.6871 19.6366C37.6871 23.7659 35.3684 25.6469 29.576 25.6469H15.0721V13.5259ZM32.1361 50.6241H15.0721V38.3534H32.1361C37.0598 38.3534 40.0616 39.9566 40.0616 44.5678C40.0616 49.1784 36.9836 50.6241 32.1361 50.6241Z" fill="white"/>
<path d="M424.439 1.3072H430.528C431.174 1.3072 431.779 1.384 432.342 1.5376C432.912 1.6848 433.418 1.9024 433.86 2.1904C434.308 2.4784 434.66 2.856 434.916 3.3232C435.172 3.784 435.3 4.3088 435.3 4.8976C435.3 5.4672 435.137 6.0048 434.81 6.5104C434.497 7.0096 434.01 7.3744 433.351 7.6048C434.113 7.8992 434.702 8.3312 435.118 8.9008C435.527 9.464 435.732 10.0752 435.732 10.7344C435.732 11.2528 435.63 11.7264 435.425 12.1552C435.227 12.584 434.954 12.9392 434.609 13.2208C434.269 13.4832 433.873 13.704 433.418 13.8832C432.579 14.1968 431.629 14.3536 430.566 14.3536H424.439V1.3072ZM427.051 6.6832H430.537C431.133 6.6832 431.635 6.5488 432.045 6.28C432.467 6.0048 432.679 5.6336 432.679 5.1664C432.679 4.616 432.464 4.1936 432.035 3.8992C431.619 3.6048 431.104 3.4576 430.489 3.4576H427.051V6.6832ZM427.051 12.2032H430.576C431.305 12.2032 431.907 12.0656 432.381 11.7904C432.861 11.5152 433.101 11.0992 433.101 10.5424C433.101 9.9664 432.867 9.5152 432.4 9.1888C431.933 8.8624 431.347 8.6992 430.643 8.6992H427.051V12.2032Z" fill="white"/>
<path d="M450.865 1.3072V8.9776C450.865 9.9248 450.717 10.7664 450.423 11.5024C450.128 12.232 449.715 12.824 449.184 13.2784C448.653 13.7328 448.035 14.0752 447.331 14.3056C446.633 14.536 445.861 14.6512 445.016 14.6512C443.294 14.6512 441.905 14.2 440.849 13.2976C440.318 12.8368 439.905 12.2352 439.61 11.4928C439.322 10.7504 439.178 9.9024 439.178 8.9488V1.3072H441.819V8.9104C441.819 9.544 441.905 10.0912 442.078 10.552C442.251 11.0128 442.488 11.3712 442.789 11.6272C443.096 11.8832 443.432 12.072 443.797 12.1936C444.168 12.3088 444.575 12.3664 445.016 12.3664C445.906 12.3664 446.649 12.12 447.244 11.6272C447.904 11.0896 448.233 10.1936 448.233 8.9392V1.3072H450.865Z" fill="white"/>
<path d="M464.623 2.0656L463.75 4.072C462.239 3.4704 460.862 3.1696 459.62 3.1696C457.86 3.1696 456.98 3.6848 456.98 4.7152C456.98 5.1632 457.287 5.5216 457.902 5.7904C458.209 5.9312 458.859 6.136 459.851 6.4048L459.956 6.4336C460.437 6.5552 460.821 6.6608 461.109 6.7504C461.461 6.8528 461.813 6.9712 462.165 7.1056C462.6 7.2656 462.937 7.4128 463.173 7.5472C463.423 7.6752 463.698 7.8512 463.999 8.0752C464.281 8.2864 464.508 8.5168 464.681 8.7664C465.065 9.3232 465.257 9.9664 465.257 10.696C465.257 11.24 465.148 11.736 464.931 12.184C464.719 12.632 464.435 13.0064 464.076 13.3072C463.718 13.6016 463.298 13.8544 462.818 14.0656C462.338 14.2704 461.835 14.4176 461.31 14.5072C460.792 14.6032 460.257 14.6512 459.707 14.6512C458.721 14.6512 457.789 14.5392 456.912 14.3152C456.055 14.0976 455.139 13.752 454.166 13.2784L454.886 11.3104C456.634 12.0912 458.238 12.4816 459.697 12.4816C460.446 12.4816 461.09 12.3792 461.627 12.1744C462.293 11.9248 462.626 11.4736 462.626 10.8208C462.626 10.1936 462.3 9.7136 461.647 9.3808C461.32 9.2016 460.683 8.9808 459.736 8.7184L459.534 8.6608C458.087 8.2512 457.165 7.9664 456.768 7.8064C455.674 7.3712 454.957 6.808 454.617 6.1168C454.425 5.7392 454.329 5.304 454.329 4.8112C454.329 4.2672 454.432 3.7744 454.637 3.3328C454.848 2.8912 455.123 2.5296 455.462 2.248C455.808 1.96 456.215 1.72 456.682 1.528C457.149 1.336 457.629 1.2016 458.122 1.1248C458.622 1.0416 459.14 1 459.678 1C461.202 1 462.85 1.3552 464.623 2.0656Z" fill="white"/>
<path d="M471.631 14.3536H468.99V1.3072H471.631V14.3536Z" fill="white"/>
<path d="M485.601 7.4992V1.3072H488.271V14.3536H486.13L478.956 5.704L479.014 8.8432V14.3536H476.344V1.3072H478.486L485.707 10.456L485.601 7.4992Z" fill="white"/>
<path d="M502.912 12.088V14.3536H492.983V1.3072H502.624V3.5632H495.537V6.6928H502.22V8.8144H495.537V12.088H502.912Z" fill="white"/>
<path d="M516.322 2.0656L515.448 4.072C513.937 3.4704 512.561 3.1696 511.319 3.1696C509.559 3.1696 508.678 3.6848 508.678 4.7152C508.678 5.1632 508.986 5.5216 509.6 5.7904C509.907 5.9312 510.557 6.136 511.55 6.4048L511.655 6.4336C512.135 6.5552 512.519 6.6608 512.807 6.7504C513.16 6.8528 513.512 6.9712 513.864 7.1056C514.299 7.2656 514.635 7.4128 514.872 7.5472C515.122 7.6752 515.397 7.8512 515.698 8.0752C515.98 8.2864 516.207 8.5168 516.38 8.7664C516.764 9.3232 516.956 9.9664 516.956 10.696C516.956 11.24 516.847 11.736 516.629 12.184C516.418 12.632 516.133 13.0064 515.775 13.3072C515.416 13.6016 514.997 13.8544 514.517 14.0656C514.037 14.2704 513.534 14.4176 513.009 14.5072C512.491 14.6032 511.956 14.6512 511.405 14.6512C510.42 14.6512 509.488 14.5392 508.611 14.3152C507.753 14.0976 506.838 13.752 505.865 13.2784L506.585 11.3104C508.333 12.0912 509.936 12.4816 511.396 12.4816C512.145 12.4816 512.788 12.3792 513.326 12.1744C513.992 11.9248 514.325 11.4736 514.325 10.8208C514.325 10.1936 513.998 9.7136 513.345 9.3808C513.019 9.2016 512.382 8.9808 511.434 8.7184L511.233 8.6608C509.786 8.2512 508.864 7.9664 508.467 7.8064C507.372 7.3712 506.655 6.808 506.316 6.1168C506.124 5.7392 506.028 5.304 506.028 4.8112C506.028 4.2672 506.13 3.7744 506.335 3.3328C506.547 2.8912 506.822 2.5296 507.161 2.248C507.507 1.96 507.913 1.72 508.381 1.528C508.848 1.336 509.328 1.2016 509.821 1.1248C510.32 1.0416 510.839 1 511.377 1C512.9 1 514.549 1.3552 516.322 2.0656Z" fill="white"/>
<path d="M529.584 2.0656L528.711 4.072C527.2 3.4704 525.823 3.1696 524.581 3.1696C522.821 3.1696 521.941 3.6848 521.941 4.7152C521.941 5.1632 522.248 5.5216 522.862 5.7904C523.17 5.9312 523.82 6.136 524.812 6.4048L524.917 6.4336C525.398 6.5552 525.782 6.6608 526.07 6.7504C526.422 6.8528 526.774 6.9712 527.126 7.1056C527.561 7.2656 527.897 7.4128 528.134 7.5472C528.384 7.6752 528.659 7.8512 528.96 8.0752C529.242 8.2864 529.469 8.5168 529.642 8.7664C530.026 9.3232 530.218 9.9664 530.218 10.696C530.218 11.24 530.109 11.736 529.892 12.184C529.68 12.632 529.396 13.0064 529.037 13.3072C528.679 13.6016 528.259 13.8544 527.779 14.0656C527.299 14.2704 526.796 14.4176 526.271 14.5072C525.753 14.6032 525.218 14.6512 524.668 14.6512C523.682 14.6512 522.75 14.5392 521.873 14.3152C521.016 14.0976 520.1 13.752 519.127 13.2784L519.847 11.3104C521.595 12.0912 523.199 12.4816 524.658 12.4816C525.407 12.4816 526.051 12.3792 526.588 12.1744C527.254 11.9248 527.587 11.4736 527.587 10.8208C527.587 10.1936 527.261 9.7136 526.608 9.3808C526.281 9.2016 525.644 8.9808 524.697 8.7184L524.495 8.6608C523.048 8.2512 522.126 7.9664 521.729 7.8064C520.635 7.3712 519.918 6.808 519.578 6.1168C519.386 5.7392 519.29 5.304 519.29 4.8112C519.29 4.2672 519.393 3.7744 519.598 3.3328C519.809 2.8912 520.084 2.5296 520.423 2.248C520.769 1.96 521.176 1.72 521.643 1.528C522.11 1.336 522.59 1.2016 523.083 1.1248C523.583 1.0416 524.101 1 524.639 1C526.163 1 527.811 1.3552 529.584 2.0656Z" fill="white"/>
<path d="M427.09 38.5684H424.439V25.522H430.758C431.526 25.522 432.234 25.6468 432.88 25.8964C433.527 26.1396 434.055 26.4692 434.465 26.8852C435.284 27.7172 435.694 28.6804 435.694 29.7748C435.694 30.8436 435.425 31.7332 434.887 32.4436C434.356 33.1476 433.447 33.65 432.16 33.9508L436.385 38.5684H433.284L429.5 34.2004H427.09V38.5684ZM427.09 27.6724V32.1844H430.72C431.488 32.1844 432.074 31.9764 432.477 31.5604C432.88 31.138 433.082 30.5588 433.082 29.8228C433.082 29.49 432.999 29.1636 432.832 28.8436C432.666 28.5172 432.4 28.242 432.035 28.018C431.67 27.7876 431.245 27.6724 430.758 27.6724H427.09Z" fill="white"/>
<path d="M449.938 36.3028V38.5684H440.009V25.522H449.65V27.778H442.563V30.9076H449.246V33.0292H442.563V36.3028H449.938Z" fill="white"/>
<path d="M463.348 26.2804L462.474 28.2868C460.963 27.6852 459.587 27.3844 458.345 27.3844C456.585 27.3844 455.704 27.8996 455.704 28.93C455.704 29.378 456.012 29.7364 456.626 30.0052C456.933 30.146 457.583 30.3508 458.575 30.6196L458.681 30.6484C459.161 30.77 459.545 30.8756 459.833 30.9652C460.186 31.0676 460.538 31.186 460.89 31.3204C461.325 31.4804 461.661 31.6276 461.898 31.762C462.148 31.89 462.423 32.066 462.724 32.29C463.006 32.5012 463.233 32.7316 463.406 32.9812C463.79 33.538 463.982 34.1812 463.982 34.9108C463.982 35.4548 463.873 35.9508 463.655 36.3988C463.444 36.8468 463.159 37.2212 462.801 37.522C462.442 37.8164 462.023 38.0692 461.543 38.2804C461.063 38.4852 460.56 38.6324 460.035 38.722C459.517 38.818 458.982 38.866 458.431 38.866C457.446 38.866 456.514 38.754 455.637 38.53C454.779 38.3124 453.864 37.9668 452.891 37.4932L453.611 35.5252C455.359 36.306 456.962 36.6964 458.422 36.6964C459.171 36.6964 459.814 36.594 460.352 36.3892C461.018 36.1396 461.351 35.6884 461.351 35.0356C461.351 34.4084 461.024 33.9284 460.371 33.5956C460.045 33.4164 459.408 33.1956 458.46 32.9332L458.259 32.8756C456.812 32.466 455.89 32.1812 455.493 32.0212C454.398 31.586 453.681 31.0228 453.342 30.3316C453.15 29.954 453.054 29.5188 453.054 29.026C453.054 28.482 453.156 27.9892 453.361 27.5476C453.572 27.106 453.848 26.7444 454.187 26.4628C454.533 26.1748 454.939 25.9348 455.407 25.7428C455.874 25.5508 456.354 25.4164 456.847 25.3396C457.346 25.2564 457.865 25.2148 458.403 25.2148C459.926 25.2148 461.575 25.57 463.348 26.2804Z" fill="white"/>
<path d="M470.355 38.5684H467.715V25.522H470.355V38.5684Z" fill="white"/>
<path d="M475.069 25.522H480.322C482.095 25.522 483.551 25.954 484.691 26.818C485.498 27.426 486.112 28.178 486.535 29.074C486.964 29.97 487.178 30.9364 487.178 31.9732C487.178 33.3812 486.816 34.6356 486.093 35.7364C485.722 36.2932 485.27 36.786 484.739 37.2148C484.208 37.6372 483.561 37.97 482.799 38.2132C482.037 38.45 481.212 38.5684 480.322 38.5684H475.069V25.522ZM477.691 36.3028H480.322C480.885 36.3028 481.4 36.2196 481.868 36.0532C482.342 35.8804 482.742 35.6532 483.068 35.3716C483.395 35.09 483.67 34.7636 483.894 34.3924C484.124 34.0148 484.291 33.6244 484.393 33.2212C484.502 32.818 484.557 32.4116 484.557 32.002C484.557 30.8884 484.208 29.9188 483.51 29.0932C483.158 28.6772 482.706 28.3508 482.156 28.114C481.605 27.8772 480.994 27.7588 480.322 27.7588H477.691V36.3028Z" fill="white"/>
<path d="M500.999 36.3028V38.5684H491.07V25.522H500.711V27.778H493.624V30.9076H500.307V33.0292H493.624V36.3028H500.999Z" fill="white"/>
<path d="M514.227 31.714V25.522H516.896V38.5684H514.755L507.582 29.9188L507.639 33.058V38.5684H504.97V25.522H507.111L514.332 34.6708L514.227 31.714Z" fill="white"/>
<path d="M531.614 35.5828L532.718 37.6756C531.066 38.4692 529.428 38.866 527.802 38.866C526.854 38.866 525.983 38.7508 525.19 38.5204C524.396 38.2836 523.72 37.9572 523.163 37.5412C522.357 36.9268 521.749 36.1652 521.339 35.2564C520.936 34.3412 520.734 33.3428 520.734 32.2612C520.734 31.2884 520.891 30.3732 521.204 29.5156C521.518 28.658 521.966 27.9092 522.549 27.2692C523.138 26.6228 523.874 26.1204 524.757 25.762C525.641 25.3972 526.611 25.2148 527.667 25.2148C528.327 25.2148 528.989 25.282 529.655 25.4164C530.333 25.5444 530.868 25.6788 531.259 25.8196C531.758 25.9988 532.219 26.178 532.641 26.3572L531.566 28.4596C531.118 28.274 530.74 28.1236 530.433 28.0084C530.145 27.906 529.738 27.7972 529.213 27.682C528.707 27.5732 528.243 27.5188 527.821 27.5188C527.117 27.5188 526.473 27.6436 525.891 27.8932C525.314 28.1364 524.841 28.4788 524.469 28.9204C523.727 29.8036 523.355 30.8852 523.355 32.1652C523.355 33.394 523.733 34.4308 524.489 35.2756C524.866 35.6852 525.343 36.0084 525.919 36.2452C526.502 36.4756 527.145 36.5908 527.85 36.5908C529.008 36.5908 530.263 36.2548 531.614 35.5828Z" fill="white"/>
<path d="M546.337 36.3028V38.5684H536.408V25.522H546.049V27.778H538.962V30.9076H545.646V33.0292H538.962V36.3028H546.337Z" fill="white"/>
<path d="M559.747 26.2804L558.874 28.2868C557.363 27.6852 555.986 27.3844 554.744 27.3844C552.984 27.3844 552.104 27.8996 552.104 28.93C552.104 29.378 552.411 29.7364 553.026 30.0052C553.333 30.146 553.983 30.3508 554.975 30.6196L555.081 30.6484C555.561 30.77 555.945 30.8756 556.233 30.9652C556.585 31.0676 556.937 31.186 557.289 31.3204C557.724 31.4804 558.061 31.6276 558.297 31.762C558.547 31.89 558.822 32.066 559.123 32.29C559.405 32.5012 559.632 32.7316 559.805 32.9812C560.189 33.538 560.381 34.1812 560.381 34.9108C560.381 35.4548 560.272 35.9508 560.055 36.3988C559.843 36.8468 559.559 37.2212 559.2 37.522C558.842 37.8164 558.422 38.0692 557.942 38.2804C557.462 38.4852 556.959 38.6324 556.434 38.722C555.916 38.818 555.381 38.866 554.831 38.866C553.845 38.866 552.913 38.754 552.036 38.53C551.179 38.3124 550.263 37.9668 549.29 37.4932L550.01 35.5252C551.758 36.306 553.362 36.6964 554.821 36.6964C555.57 36.6964 556.214 36.594 556.751 36.3892C557.417 36.1396 557.75 35.6884 557.75 35.0356C557.75 34.4084 557.424 33.9284 556.771 33.5956C556.444 33.4164 555.807 33.1956 554.86 32.9332L554.658 32.8756C553.211 32.466 552.289 32.1812 551.892 32.0212C550.798 31.586 550.081 31.0228 549.741 30.3316C549.549 29.954 549.453 29.5188 549.453 29.026C549.453 28.482 549.556 27.9892 549.761 27.5476C549.972 27.106 550.247 26.7444 550.586 26.4628C550.932 26.1748 551.339 25.9348 551.806 25.7428C552.273 25.5508 552.753 25.4164 553.246 25.3396C553.746 25.2564 554.264 25.2148 554.802 25.2148C556.326 25.2148 557.974 25.57 559.747 26.2804Z" fill="white"/>
<path d="M424.439 49.7359H427.32L428.501 53.3839L430.182 59.0383L433.149 49.7359H435.223L438.21 59.0383L439.929 53.3455L441.052 49.7359H443.943L439.401 62.8207H437.096L434.186 54.1903L431.305 62.8207H429.039L424.439 49.7359Z" fill="white"/>
<path d="M456.866 60.5167V62.7823H446.937V49.7359H456.578V51.9919H449.491V55.1215H456.174V57.2431H449.491V60.5167H456.866Z" fill="white"/>
<path d="M463.487 49.7359V60.5071H469.93V62.7823H460.836V49.7359H463.487Z" fill="white"/>
<path d="M475.98 49.7359V60.5071H482.424V62.7823H473.33V49.7359H475.98Z" fill="white"/>
<path d="M495.08 55.9279V49.7359H497.75V62.7823H495.608L488.435 54.1327L488.493 57.2719V62.7823H485.823V49.7359H487.964L495.186 58.8847L495.08 55.9279Z" fill="white"/>
<path d="M512.391 60.5167V62.7823H502.461V49.7359H512.102V51.9919H505.016V55.1215H511.699V57.2431H505.016V60.5167H512.391Z" fill="white"/>
<path d="M525.801 50.4943L524.927 52.5007C523.416 51.8991 522.04 51.5983 520.798 51.5983C519.037 51.5983 518.157 52.1135 518.157 53.1439C518.157 53.5919 518.464 53.9503 519.079 54.2191C519.386 54.3599 520.036 54.5647 521.028 54.8335L521.134 54.8623C521.614 54.9839 521.998 55.0895 522.286 55.1791C522.638 55.2815 522.99 55.3999 523.342 55.5343C523.778 55.6943 524.114 55.8415 524.351 55.9759C524.6 56.1039 524.876 56.2799 525.177 56.5039C525.458 56.7151 525.685 56.9455 525.858 57.1951C526.242 57.7519 526.435 58.3951 526.435 59.1247C526.435 59.6687 526.326 60.1647 526.108 60.6127C525.897 61.0607 525.612 61.4351 525.253 61.7359C524.895 62.0303 524.476 62.2831 523.995 62.4943C523.515 62.6991 523.013 62.8463 522.488 62.9359C521.969 63.0319 521.435 63.0799 520.884 63.0799C519.898 63.0799 518.967 62.9679 518.09 62.7439C517.232 62.5263 516.316 62.1807 515.343 61.7071L516.064 59.7391C517.811 60.5199 519.415 60.9103 520.875 60.9103C521.624 60.9103 522.267 60.8079 522.805 60.6031C523.47 60.3535 523.803 59.9023 523.803 59.2495C523.803 58.6223 523.477 58.1423 522.824 57.8095C522.497 57.6303 521.86 57.4095 520.913 57.1471L520.711 57.0895C519.264 56.6799 518.343 56.3951 517.946 56.2351C516.851 55.7999 516.134 55.2367 515.795 54.5455C515.603 54.1679 515.507 53.7327 515.507 53.2399C515.507 52.6959 515.609 52.2031 515.814 51.7615C516.025 51.3199 516.3 50.9583 516.64 50.6767C516.985 50.3887 517.392 50.1487 517.859 49.9567C518.327 49.7647 518.807 49.6303 519.3 49.5535C519.799 49.4703 520.318 49.4287 520.855 49.4287C522.379 49.4287 524.027 49.7839 525.801 50.4943Z" fill="white"/>
<path d="M539.063 50.4943L538.189 52.5007C536.678 51.8991 535.302 51.5983 534.06 51.5983C532.299 51.5983 531.419 52.1135 531.419 53.1439C531.419 53.5919 531.727 53.9503 532.341 54.2191C532.648 54.3599 533.298 54.5647 534.29 54.8335L534.396 54.8623C534.876 54.9839 535.26 55.0895 535.548 55.1791C535.901 55.2815 536.253 55.3999 536.605 55.5343C537.04 55.6943 537.376 55.8415 537.613 55.9759C537.863 56.1039 538.138 56.2799 538.439 56.5039C538.721 56.7151 538.948 56.9455 539.121 57.1951C539.505 57.7519 539.697 58.3951 539.697 59.1247C539.697 59.6687 539.588 60.1647 539.37 60.6127C539.159 61.0607 538.874 61.4351 538.516 61.7359C538.157 62.0303 537.738 62.2831 537.258 62.4943C536.778 62.6991 536.275 62.8463 535.75 62.9359C535.232 63.0319 534.697 63.0799 534.146 63.0799C533.161 63.0799 532.229 62.9679 531.352 62.7439C530.494 62.5263 529.579 62.1807 528.606 61.7071L529.326 59.7391C531.074 60.5199 532.677 60.9103 534.137 60.9103C534.886 60.9103 535.529 60.8079 536.067 60.6031C536.733 60.3535 537.066 59.9023 537.066 59.2495C537.066 58.6223 536.739 58.1423 536.086 57.8095C535.76 57.6303 535.123 57.4095 534.175 57.1471L533.974 57.0895C532.527 56.6799 531.605 56.3951 531.208 56.2351C530.113 55.7999 529.396 55.2367 529.057 54.5455C528.865 54.1679 528.769 53.7327 528.769 53.2399C528.769 52.6959 528.871 52.2031 529.076 51.7615C529.287 51.3199 529.563 50.9583 529.902 50.6767C530.248 50.3887 530.654 50.1487 531.122 49.9567C531.589 49.7647 532.069 49.6303 532.562 49.5535C533.061 49.4703 533.58 49.4287 534.118 49.4287C535.641 49.4287 537.29 49.7839 539.063 50.4943Z" fill="white"/>
</svg>
