<svg width="1000" height="390" viewBox="0 0 1000 390" fill="none" xmlns="http://www.w3.org/2000/svg">
<path d="M261.368 383.208H180.86V305.094H0V241.698L150.244 5.66037H261.368V234.34H310.126V305.094H261.368V383.208ZM180.86 234.34V76.9811L78.8073 234.34H180.86Z" fill="white"/>
<path d="M499.876 390C391.587 390 343.395 292.075 343.395 194.717C343.395 97.3585 391.587 0 499.876 0C607.598 0 656.357 97.3585 656.357 194.717C656.357 292.075 607.598 390 499.876 390ZM499.876 318.679C553.737 318.679 574.148 264.34 574.148 194.717C574.148 125.094 553.737 71.3208 499.876 71.3208C445.448 71.3208 425.037 125.094 425.037 194.717C425.037 264.34 445.448 318.679 499.876 318.679Z" fill="white"/>
<path d="M951.242 383.208H870.733V305.094H689.874V241.698L840.118 5.66037H951.242V234.34H1000V305.094H951.242V383.208ZM870.733 234.34V76.9811L768.681 234.34H870.733Z" fill="white"/>
</svg>