<svg width="114" height="114" viewBox="0 0 114 114" fill="none" xmlns="http://www.w3.org/2000/svg">
<path d="M81.7081 15.9444L86.554 9.08309L92.141 13.0291L87.2951 19.8903L86.1189 19.0596L90.2448 13.2177L87.0102 10.9332L82.8843 16.7751L81.7081 15.9444ZM91.2135 23.8211C90.8561 23.4545 90.5728 23.0491 90.3636 22.6052C90.1543 22.1612 90.0471 21.6959 90.0421 21.2093C90.0428 20.7172 90.1625 20.2095 90.4011 19.6865C90.6456 19.1578 91.0428 18.6255 91.5928 18.0895L91.7647 17.922C92.2917 17.4083 92.8141 17.0445 93.3316 16.8305C93.8549 16.6109 94.3597 16.51 94.846 16.5275C95.3324 16.5451 95.7919 16.667 96.2246 16.8932C96.663 17.1138 97.0609 17.4075 97.4182 17.7741C97.7756 18.1408 98.0589 18.5461 98.2681 18.9901C98.4831 19.4285 98.5931 19.891 98.5982 20.3776C98.6032 20.8642 98.4893 21.3662 98.2563 21.8837C98.0291 22.3956 97.6519 22.9083 97.1249 23.422L96.953 23.5895C96.403 24.1256 95.8606 24.5089 95.3258 24.7397C94.7968 24.9648 94.2863 25.0714 93.7942 25.0594C93.3079 25.0418 92.8456 24.9227 92.4071 24.7021C91.9687 24.4814 91.5708 24.1878 91.2135 23.8211ZM92.1244 22.9333C92.331 23.1453 92.5693 23.3153 92.8392 23.4432C93.1091 23.5712 93.4025 23.6315 93.7194 23.6243C94.042 23.6115 94.3855 23.5169 94.7498 23.3405C95.1198 23.1699 95.5024 22.892 95.8977 22.5067L96.0696 22.3392C96.4477 21.9707 96.7182 21.6121 96.8811 21.2635C97.0553 20.9149 97.1472 20.5852 97.1569 20.2741C97.1723 19.9575 97.1195 19.6627 96.9986 19.3896C96.8776 19.1165 96.7139 18.8739 96.5073 18.6619C96.2951 18.4442 96.0541 18.2714 95.7842 18.1435C95.5143 18.0155 95.2208 17.9552 94.9039 17.9624C94.5928 17.9641 94.2607 18.0475 93.9079 18.2126C93.5607 18.3722 93.1981 18.6363 92.8199 19.0048L92.6481 19.1723C92.2527 19.5576 91.9623 19.93 91.7766 20.2897C91.5909 20.6494 91.4875 20.9903 91.4664 21.3125C91.451 21.6291 91.5038 21.924 91.6247 22.1971C91.7457 22.4702 91.9122 22.7156 92.1244 22.9333ZM93.0334 27.76L95.3642 26.1939L95.8661 26.9409C96.1966 26.902 96.559 26.803 96.9534 26.6441C97.3588 26.4873 97.7742 26.2949 98.1993 26.0671C98.629 25.8458 99.0574 25.6013 99.4847 25.3335C99.9164 25.0723 100.325 24.8124 100.71 24.5536L102.204 23.5497L105.376 28.2708L99.44 32.2597L99.9821 33.0665L97.6514 34.6326L96.9152 33.537L98.2101 32.6669L95.0645 27.9856L93.7696 28.8556L93.0334 27.76ZM96.6826 28.1561L98.6369 31.0645L103.537 27.7716L101.944 25.4011L101.287 25.8428C100.809 26.1641 100.355 26.4497 99.9257 26.6998C99.5072 26.9521 99.1064 27.1732 98.7233 27.3632C98.3467 27.5487 97.9901 27.7064 97.6533 27.8363C97.3165 27.9663 96.993 28.0728 96.6826 28.1561ZM99.5646 35.0438L107.288 31.7413L107.854 33.0654L104.677 34.4241L106.281 38.1756L109.458 36.8168L110.024 38.1409L102.301 41.4433L101.735 40.1193L105.133 38.6662L103.529 34.9148L100.131 36.3678L99.5646 35.0438ZM102.825 42.8858L106.596 44.1864C106.636 43.537 106.823 43.0138 107.159 42.6165C107.502 42.2175 107.955 41.9535 108.516 41.8245C108.89 41.7385 109.249 41.726 109.591 41.7869C109.933 41.8478 110.247 41.9809 110.532 42.1862C110.817 42.3916 111.066 42.6709 111.279 43.0243C111.493 43.3855 111.659 43.8234 111.778 44.338L112.49 47.4372L104.303 49.3182L103.981 47.9148L107.115 47.1946L106.72 45.4754L103.169 44.3828L102.825 42.8858ZM108.838 43.228C108.628 43.2763 108.448 43.3505 108.299 43.4505C108.151 43.5583 108.036 43.6997 107.953 43.8747C107.872 44.0575 107.828 44.2769 107.821 44.533C107.824 44.795 107.866 45.1054 107.949 45.464L108.284 46.9259L110.951 46.3133L110.615 44.8514C110.533 44.4927 110.432 44.1958 110.312 43.9606C110.202 43.7315 110.07 43.5523 109.918 43.4233C109.767 43.302 109.601 43.2251 109.421 43.1925C109.243 43.1678 109.049 43.1796 108.838 43.228ZM104.718 53.4116L111.858 52.9989L111.696 50.1836L112.941 50.1116L113.35 57.1798L112.104 57.2518L111.941 54.4365L104.801 54.8492L104.718 53.4116ZM104.869 58.9696L113.227 59.8109L113.083 61.2437L109.931 60.9264L109.768 62.5383C109.712 63.1034 109.599 63.5825 109.431 63.9757C109.27 64.3776 109.06 64.7022 108.802 64.9496C108.552 65.1978 108.261 65.3695 107.93 65.4648C107.598 65.5681 107.233 65.5997 106.835 65.5596C106.445 65.5204 106.094 65.4167 105.781 65.2485C105.475 65.0891 105.221 64.8625 105.017 64.5686C104.822 64.2755 104.681 63.9156 104.595 63.4889C104.517 63.0709 104.506 62.5794 104.563 62.0142L104.869 58.9696ZM105.967 60.5274L105.816 62.0198C105.779 62.3939 105.775 62.7111 105.805 62.9715C105.843 63.2326 105.91 63.4444 106.006 63.6068C106.103 63.7693 106.231 63.8908 106.392 63.9713C106.561 64.0526 106.756 64.1044 106.979 64.1269C107.202 64.1493 107.4 64.1371 107.574 64.0903C107.755 64.0442 107.91 63.9512 108.036 63.8112C108.163 63.6711 108.267 63.4766 108.348 63.2275C108.438 62.9792 108.501 62.668 108.539 62.2939L108.689 60.8014L105.967 60.5274ZM102.91 69.9206C103.046 69.4269 103.251 68.9853 103.524 68.5957C103.797 68.2062 104.142 67.8988 104.561 67.6737C104.98 67.4486 105.473 67.3145 106.04 67.2714C106.614 67.2381 107.267 67.3222 108 67.5236L108.231 67.5872C108.933 67.7801 109.509 68.0381 109.96 68.361C110.418 68.6861 110.766 69.0513 111.003 69.4566C111.238 69.8696 111.374 70.3095 111.412 70.7761C111.447 71.2505 111.398 71.7307 111.265 72.2167C111.142 72.6641 110.969 73.0647 110.748 73.4186C110.534 73.7747 110.276 74.0646 109.973 74.2886C109.669 74.5202 109.327 74.6792 108.946 74.7654C108.564 74.8594 108.144 74.8642 107.686 74.7798L108.086 73.3219C108.353 73.3455 108.592 73.3239 108.801 73.2569C109.016 73.1998 109.203 73.1062 109.364 72.976C109.522 72.8535 109.656 72.6956 109.768 72.5021C109.884 72.3185 109.975 72.111 110.038 71.8796C110.108 71.625 110.131 71.3616 110.106 71.0893C110.081 70.817 109.989 70.5509 109.828 70.291C109.665 70.0388 109.423 69.8022 109.102 69.5813C108.779 69.368 108.355 69.1893 107.83 69.0452L107.599 68.9816C107.044 68.8289 106.564 68.7634 106.16 68.7851C105.753 68.8145 105.411 68.8987 105.132 69.0378C104.853 69.1768 104.635 69.3532 104.476 69.5669C104.316 69.7883 104.203 70.0186 104.137 70.2577C104.061 70.5354 104.024 70.7908 104.026 71.0237C104.036 71.2588 104.083 71.4666 104.166 71.6471C104.255 71.8374 104.375 72.0032 104.527 72.1445C104.679 72.2859 104.863 72.4027 105.078 72.495L104.677 73.953C104.212 73.7752 103.834 73.5472 103.546 73.2687C103.257 72.9903 103.045 72.6749 102.91 72.3224C102.78 71.9797 102.718 71.6018 102.724 71.1885C102.727 70.783 102.79 70.3603 102.91 69.9206ZM101.8 74.1456L103.955 77.5025C104.388 77.0173 104.86 76.7226 105.369 76.6187C105.886 76.5181 106.404 76.591 106.925 76.8375C107.272 77.0018 107.561 77.2139 107.792 77.4738C108.023 77.7336 108.187 78.0325 108.284 78.3704C108.381 78.7082 108.403 79.0817 108.351 79.4908C108.295 79.9071 108.155 80.3539 107.929 80.8311L106.568 83.7052L98.9759 80.1109L99.5921 78.8093L102.499 80.1855L103.254 78.5911L101.143 75.5339L101.8 74.1456ZM106.309 78.139C106.114 78.0466 105.926 77.9934 105.747 77.9793C105.565 77.9725 105.386 78.0121 105.213 78.0982C105.036 78.1914 104.866 78.3364 104.702 78.5332C104.542 78.7406 104.383 79.0106 104.225 79.3432L103.583 80.699L106.056 81.8697L106.698 80.514C106.856 80.1814 106.96 79.8857 107.012 79.6269C107.067 79.3788 107.075 79.1568 107.035 78.9608C106.992 78.7721 106.909 78.6092 106.788 78.4723C106.664 78.3425 106.504 78.2315 106.309 78.139ZM89.0247 92.6176L94.1773 99.2516L93.0401 100.135L90.9201 97.4055L87.6979 99.9082L89.8178 102.638L88.6806 103.521L83.5279 96.8869L84.6652 96.0036L86.9323 98.9226L90.1546 96.4199L87.8874 93.5009L89.0247 92.6176ZM76.9785 100.524L78.4843 101.876L81.5045 100.297L81.2535 98.2889L82.5297 97.6217L83.6031 106.539L82.3269 107.206L75.6172 101.235L76.9785 100.524ZM82.163 105.261L81.6679 101.62L79.4772 102.765L82.163 105.261ZM74.4418 101.641L76.9975 109.642L73.7968 110.665C73.3395 110.811 72.93 110.883 72.5682 110.881C72.2089 110.886 71.8921 110.828 71.6179 110.706C71.3385 110.593 71.1066 110.419 70.9224 110.184C70.7329 109.959 70.5871 109.687 70.4849 109.367C70.4191 109.161 70.3876 108.957 70.3901 108.755C70.3875 108.562 70.4164 108.377 70.4768 108.198C70.5321 108.029 70.6189 107.867 70.7372 107.712C70.8479 107.559 70.9838 107.419 71.1448 107.292C70.6306 107.338 70.1852 107.245 69.8086 107.013C69.4321 106.78 69.1598 106.401 68.9919 105.875C68.8848 105.54 68.8395 105.215 68.8562 104.898C68.8752 104.59 68.9674 104.3 69.1328 104.029C69.2905 103.76 69.5264 103.513 69.8404 103.287C70.1569 103.068 70.5628 102.879 71.0582 102.721L74.4418 101.641ZM73.4497 103.268L71.5865 103.863C71.2893 103.958 71.0489 104.06 70.8653 104.169C70.6742 104.28 70.5373 104.404 70.4546 104.539C70.3643 104.677 70.3156 104.827 70.3085 104.989C70.3014 105.151 70.3295 105.331 70.3928 105.529C70.4561 105.727 70.5375 105.89 70.6371 106.018C70.7391 106.153 70.8669 106.251 71.0205 106.311C71.1765 106.379 71.3659 106.406 71.5887 106.394C71.8039 106.384 72.0601 106.332 72.3573 106.237L74.2091 105.645L73.4497 103.268ZM74.5596 106.743L72.9021 107.272C72.6354 107.357 72.4179 107.452 72.2496 107.556C72.0837 107.668 71.9621 107.786 71.8846 107.912C71.8019 108.048 71.7596 108.191 71.7577 108.343C71.7482 108.497 71.7714 108.662 71.8274 108.837C71.8809 109.005 71.9513 109.146 72.0384 109.261C72.1255 109.376 72.2396 109.457 72.3806 109.504C72.5165 109.562 72.6832 109.584 72.8807 109.572C73.0782 109.559 73.3142 109.509 73.5885 109.421L75.246 108.892L74.5596 106.743ZM66.6987 103.932L67.9389 112.24L62.3607 113.073L62.1764 111.838L66.3304 111.218L66.0044 109.034L62.2065 109.601L62.0222 108.367L65.8201 107.8L65.4587 105.379L61.3047 105.999L61.1205 104.765L66.6987 103.932ZM59.3936 104.852L59.3242 113.252L56.2643 113.227C55.6963 113.222 55.2088 113.154 54.8019 113.023C54.3869 112.899 54.0444 112.716 53.7744 112.474C53.5043 112.24 53.3067 111.958 53.1814 111.629C53.0481 111.3 52.9831 110.932 52.9865 110.524C52.9899 110.116 53.0609 109.748 53.1996 109.421C53.3303 109.094 53.5327 108.812 53.8067 108.574C54.0806 108.344 54.4261 108.167 54.8431 108.043C55.2521 107.926 55.7406 107.87 56.3085 107.875L57.9285 107.888L57.9537 104.84L59.3936 104.852ZM57.9182 109.136L56.4182 109.124C56.0422 109.121 55.726 109.146 55.4695 109.2C55.213 109.262 55.0083 109.348 54.8554 109.459C54.7024 109.578 54.5932 109.725 54.5277 109.9C54.4622 110.084 54.4285 110.295 54.4265 110.535C54.4245 110.775 54.4548 110.984 54.5173 111.16C54.5798 111.337 54.6866 111.486 54.8376 111.607C54.9886 111.728 55.1919 111.818 55.4474 111.876C55.7029 111.942 56.0186 111.977 56.3946 111.98L57.8945 111.992L57.9182 109.136ZM52.3832 104.745L48.7761 108.571L50.8142 112.998L49.2067 112.716L47.7052 109.468L45.1644 112.007L43.6042 111.734L47.0109 108.286L44.9369 103.439L46.568 103.725L48.0915 107.404L50.7994 104.467L52.3832 104.745ZM31.023 97.2585L25.9762 103.973L20.5084 99.8639L25.5552 93.149L26.7063 94.0141L22.4093 99.7314L25.5749 102.111L29.8719 96.3933L31.023 97.2585ZM21.7591 89.101C22.105 89.4784 22.3757 89.8923 22.5712 90.3424C22.7668 90.7926 22.8596 91.261 22.8497 91.7475C22.8339 92.2394 22.6987 92.7431 22.444 93.2586C22.1835 93.7795 21.7701 94.2994 21.2039 94.8182L21.027 94.9804C20.4844 95.4777 19.9511 95.8253 19.4272 96.0232C18.8974 96.2266 18.3898 96.3121 17.9042 96.2796C17.4187 96.2471 16.9632 96.1111 16.5376 95.8717C16.1062 95.6377 15.7175 95.332 15.3716 94.9545C15.0256 94.5771 14.7549 94.1632 14.5594 93.7131C14.358 93.2683 14.2622 92.8026 14.2721 92.3161C14.282 91.8296 14.4113 91.3313 14.66 90.8212C14.9029 90.3165 15.2956 89.8156 15.8382 89.3183L16.0152 89.1562C16.5814 88.6373 17.1353 88.2708 17.6769 88.0566C18.2125 87.8478 18.7261 87.7569 19.2175 87.784C19.7031 87.8165 20.1616 87.9498 20.593 88.1838C21.0245 88.4178 21.4132 88.7235 21.7591 89.101ZM20.8213 89.9603C20.6213 89.7421 20.3884 89.5649 20.1225 89.4288C19.8567 89.2926 19.5653 89.2233 19.2483 89.2208C18.9254 89.2237 18.5792 89.3077 18.2096 89.4727C17.8346 89.6319 17.4437 89.898 17.0367 90.2709L16.8598 90.433C16.4705 90.7898 16.1891 91.1399 16.0156 91.4834C15.8307 91.8264 15.7287 92.1532 15.7095 92.4637C15.6844 92.7797 15.7281 93.0761 15.8406 93.3528C15.9531 93.6295 16.1093 93.8769 16.3093 94.0952C16.5147 94.3193 16.7503 94.4994 17.0162 94.6356C17.282 94.7717 17.5734 94.8411 17.8904 94.8436C18.2015 94.8515 18.5359 94.7783 18.8937 94.624C19.2456 94.4752 19.6162 94.2224 20.0055 93.8657L20.1824 93.7035C20.5894 93.3306 20.8911 92.9672 21.0878 92.6134C21.2844 92.2596 21.3982 91.922 21.4292 91.6006C21.4543 91.2846 21.4106 90.9883 21.2981 90.7116C21.1856 90.4349 21.0267 90.1845 20.8213 89.9603ZM20.0606 85.1077L17.6822 86.6004L17.2037 85.838C16.8722 85.8666 16.5069 85.9542 16.1078 86.1008C15.6976 86.2449 15.2765 86.4242 14.8444 86.6387C14.4081 86.8464 13.9722 87.0775 13.5368 87.3318C13.0971 87.5794 12.6808 87.8265 12.2878 88.0732L10.7632 89.03L7.73959 84.2122L13.7974 80.4104L13.2807 79.5871L15.6592 78.0944L16.3608 79.2125L15.0395 80.0417L18.0376 84.8189L19.3589 83.9897L20.0606 85.1077ZM16.4255 84.598L14.5629 81.6301L9.56212 84.7685L11.0803 87.1875L11.7511 86.7665C12.239 86.4604 12.7015 86.189 13.1386 85.9524C13.5647 85.7134 13.9722 85.5048 14.3611 85.3269C14.7433 85.1532 15.1047 85.0067 15.4453 84.8873C15.786 84.768 16.1127 84.6715 16.4255 84.598ZM13.7593 77.6223L5.93559 80.6802L5.41139 79.339L8.63027 78.0809L7.14504 74.2808L3.92616 75.5389L3.40197 74.1977L11.2256 71.1399L11.7498 72.4811L8.30742 73.8265L9.79264 77.6266L13.2351 76.2811L13.7593 77.6223ZM10.7473 69.6801L7.02151 68.2552C6.96041 68.9029 6.75558 69.4197 6.40702 69.8056C6.05061 70.193 5.58974 70.4419 5.0244 70.5522C4.6475 70.6257 4.289 70.6264 3.94887 70.5542C3.60875 70.4819 3.29956 70.3385 3.0213 70.1238C2.74304 69.9091 2.50356 69.6217 2.30287 69.2614C2.10064 68.8933 1.94897 68.4502 1.84786 67.932L1.23892 64.8108L9.48347 63.2023L9.75922 64.6156L6.60273 65.2315L6.94052 66.9628L10.4532 68.1726L10.7473 69.6801ZM4.74865 69.1388C4.96065 69.0974 5.14297 69.0293 5.29561 68.9343C5.44671 68.8314 5.5666 68.6939 5.65527 68.5218C5.74241 68.3418 5.79364 68.1239 5.80897 67.8683C5.81491 67.6063 5.78265 67.2947 5.71218 66.9335L5.42494 65.4612L2.73957 65.9852L3.02681 67.4574C3.09728 67.8186 3.18843 68.1187 3.30027 68.3577C3.40272 68.5904 3.52816 68.7738 3.67658 68.9078C3.82346 69.034 3.98625 69.1164 4.16492 69.1549C4.34207 69.1855 4.53665 69.1802 4.74865 69.1388ZM9.1907 59.0977L2.0417 59.3051L2.12347 62.1239L0.875992 62.1601L0.670708 55.083L1.91818 55.0469L1.99995 57.8657L9.14894 57.6583L9.1907 59.0977ZM9.2033 53.5379L0.877088 52.427L1.06753 50.9996L4.2077 51.4186L4.42195 49.8128C4.49707 49.2498 4.62505 48.7746 4.80588 48.3871C4.97984 47.9906 5.19979 47.6729 5.46572 47.434C5.72373 47.194 6.01979 47.0317 6.35391 46.9471C6.68908 46.8547 7.05491 46.8349 7.4514 46.8878C7.83996 46.9396 8.1878 47.0546 8.49494 47.2328C8.7952 47.402 9.04232 47.6368 9.23631 47.937C9.42237 48.2363 9.55133 48.6005 9.62319 49.0298C9.68818 49.4501 9.68311 49.9417 9.60799 50.5048L9.2033 53.5379ZM8.15671 51.9455L8.35509 50.4587C8.40481 50.086 8.41885 49.769 8.3972 49.5079C8.36762 49.2457 8.30737 49.0318 8.21645 48.8663C8.12554 48.7009 8.00105 48.5753 7.84299 48.4896C7.677 48.4029 7.48299 48.3447 7.26096 48.3151C7.03893 48.2855 6.84042 48.2913 6.66543 48.3325C6.48251 48.3727 6.32549 48.4607 6.19437 48.5965C6.06325 48.7324 5.95301 48.9235 5.86365 49.1698C5.76635 49.4151 5.69284 49.7241 5.64312 50.0968L5.44474 51.5836L8.15671 51.9455ZM11.5158 42.6552C11.3641 43.1442 11.1455 43.579 10.86 43.9595C10.5745 44.34 10.2188 44.6359 9.79312 44.8473C9.3674 45.0586 8.87012 45.1766 8.30131 45.2012C7.72722 45.2158 7.07723 45.1106 6.35134 44.8854L6.12211 44.8143C5.42679 44.5987 4.85923 44.3221 4.41945 43.9847C3.97202 43.6449 3.63643 43.2686 3.41268 42.8558C3.19129 42.4353 3.06936 41.9913 3.04689 41.5236C3.02678 41.0484 3.09138 40.57 3.24068 40.0886C3.37813 39.6455 3.56341 39.2506 3.79652 38.9041C4.02198 38.5553 4.28935 38.2738 4.59862 38.0598C4.91026 37.8382 5.25762 37.6905 5.64068 37.6166C6.02612 37.5352 6.44635 37.544 6.90137 37.6433L6.45347 39.0874C6.1871 39.0551 5.94827 39.0689 5.73698 39.1291C5.52042 39.1792 5.32995 39.2667 5.16557 39.3916C5.00356 39.5088 4.86382 39.6623 4.74634 39.852C4.6236 40.0318 4.52668 40.2362 4.45559 40.4654C4.37738 40.7176 4.34621 40.9801 4.36206 41.2531C4.37792 41.526 4.46201 41.795 4.61434 42.06C4.76904 42.3174 5.00317 42.5617 5.31674 42.793C5.63267 43.0166 6.05043 43.209 6.57001 43.3702L6.79924 43.4413C7.34939 43.6119 7.8268 43.693 8.23149 43.6845C8.63854 43.6683 8.98367 43.5953 9.26687 43.4653C9.55007 43.3354 9.77425 43.1662 9.93941 42.9578C10.1069 42.7417 10.2274 42.5153 10.3009 42.2784C10.3862 42.0033 10.4315 41.7493 10.4367 41.5164C10.4343 41.2811 10.3945 41.072 10.3173 40.8889C10.2348 40.6958 10.1199 40.5261 9.97255 40.3799C9.82525 40.2337 9.64554 40.111 9.43343 40.0117L9.88134 38.5675C10.3409 38.7603 10.7103 39.0005 10.9896 39.2882C11.2689 39.5758 11.4705 39.898 11.5944 40.2547C11.713 40.6014 11.7628 40.9812 11.7436 41.3941C11.7268 41.7993 11.6509 42.2197 11.5158 42.6552ZM12.762 38.4681L10.7094 35.0478C10.2616 35.5197 9.78156 35.8 9.26916 35.8886C8.74964 35.9735 8.2334 35.885 7.72046 35.6229C7.3785 35.4482 7.09598 35.2276 6.87288 34.9609C6.64979 34.6942 6.49499 34.3905 6.4085 34.0499C6.322 33.7092 6.31093 33.3352 6.37528 32.9279C6.44327 32.5135 6.59737 32.0712 6.83758 31.601L8.2843 28.7691L15.7647 32.5906L15.1096 33.873L12.2456 32.4099L11.4431 33.9808L13.4608 37.1002L12.762 38.4681ZM8.37558 34.3406C8.56794 34.4389 8.75347 34.4977 8.9322 34.5172C9.11456 34.5295 9.29375 34.4952 9.46976 34.4145C9.64942 34.3266 9.82415 34.1868 9.99397 33.995C10.1603 33.7925 10.3272 33.5274 10.4946 33.1997L11.177 31.8639L8.74055 30.6192L8.05814 31.955C7.89072 32.2827 7.77727 32.5751 7.7178 32.8322C7.65485 33.0785 7.6404 33.3002 7.67447 33.4973C7.71219 33.6873 7.78947 33.8525 7.90632 33.9931C8.02681 34.1265 8.18323 34.2423 8.37558 34.3406ZM26.1002 20.3994L21.1547 13.6095L22.3187 12.7617L24.3534 15.5553L27.6514 13.1532L25.6167 10.3596L26.7806 9.51185L31.7261 16.3017L30.5621 17.1495L28.3861 14.162L25.0882 16.5641L27.2642 19.5516L26.1002 20.3994ZM38.3895 12.8778L36.9284 11.4774L33.8585 12.9574L34.0441 14.9727L32.747 15.5981L31.9636 6.6505L33.2608 6.02515L39.7731 12.2107L38.3895 12.8778ZM33.3615 7.97487L33.7381 11.6299L35.9648 10.5564L33.3615 7.97487ZM40.9604 11.8411L38.6444 3.76666L41.8742 2.84029C42.3356 2.70795 42.7471 2.64818 43.1086 2.661C43.4679 2.66612 43.7828 2.73393 44.0533 2.86442C44.3292 2.98502 44.5558 3.16555 44.733 3.40602C44.9156 3.6366 45.0533 3.91338 45.1459 4.23636C45.2055 4.44398 45.2309 4.6489 45.2224 4.8511C45.2193 5.04341 45.1848 5.22806 45.1191 5.40505C45.0588 5.57214 44.9672 5.73157 44.8443 5.88335C44.7291 6.03291 44.5891 6.16877 44.4244 6.29091C44.9397 6.25962 45.3821 6.36575 45.7516 6.60933C46.1211 6.8529 46.3819 7.23999 46.5341 7.77059C46.6312 8.10895 46.6667 8.43583 46.6406 8.75124C46.6124 9.05896 46.5116 9.34587 46.3382 9.61198C46.1726 9.87588 45.9294 10.1162 45.6087 10.333C45.2859 10.5422 44.8745 10.7184 44.3747 10.8618L40.9604 11.8411ZM42.0005 10.2444L43.8807 9.70516C44.1806 9.61914 44.4239 9.52438 44.6106 9.4209C44.805 9.3152 44.9455 9.19583 45.0322 9.06278C45.1265 8.92752 45.1797 8.77911 45.1916 8.61756C45.2035 8.45602 45.1808 8.27527 45.1235 8.07533C45.0661 7.8754 44.9896 7.71009 44.8938 7.57942C44.7959 7.44106 44.6711 7.33955 44.5194 7.27487C44.3654 7.2025 44.1769 7.16918 43.9539 7.1749C43.7385 7.17842 43.4809 7.22319 43.181 7.30921L41.3123 7.84519L42.0005 10.2444ZM40.9947 6.73784L42.6672 6.2581C42.9364 6.1809 43.1566 6.09277 43.328 5.99369C43.4971 5.88693 43.6222 5.77196 43.7034 5.64881C43.7901 5.51575 43.8366 5.3734 43.8431 5.22175C43.8572 5.06789 43.8389 4.90252 43.7882 4.72566C43.7397 4.55648 43.6736 4.41314 43.5899 4.29565C43.5063 4.17815 43.3947 4.09365 43.2551 4.04215C43.1209 3.98075 42.955 3.95344 42.7572 3.96024C42.5594 3.96704 42.3221 4.01014 42.0452 4.08954L40.3727 4.56927L40.9947 6.73784ZM48.7684 9.7834L47.7898 1.4406L53.3914 0.783548L53.5368 2.02305L49.3654 2.51234L49.6226 4.70531L53.4365 4.25796L53.5818 5.49746L49.768 5.94481L50.0532 8.37614L54.2246 7.88685L54.37 9.12635L48.7684 9.7834ZM56.0996 9.09355L56.4378 0.700358L59.4953 0.823581C60.0629 0.846454 60.5479 0.930053 60.9504 1.07438C61.3612 1.21103 61.6977 1.40474 61.9598 1.6555C62.2223 1.89826 62.4108 2.18609 62.5255 2.51898C62.6482 2.85219 62.7013 3.22263 62.6849 3.6303C62.6685 4.03797 62.5857 4.40293 62.4366 4.72519C62.2955 5.04777 62.0842 5.32348 61.8028 5.55234C61.5217 5.77319 61.1707 5.9392 60.7499 6.05034C60.3374 6.15381 59.8473 6.19411 59.2798 6.17124L57.6611 6.106L57.5384 9.15153L56.0996 9.09355ZM57.7114 4.85902L59.2102 4.91942C59.5859 4.93456 59.9027 4.91931 60.1608 4.87366C60.4191 4.82002 60.6265 4.74031 60.7829 4.63452C60.9396 4.52074 61.0535 4.37721 61.1245 4.20393C61.1959 4.02266 61.2364 3.81212 61.2461 3.57231C61.2557 3.33251 61.2321 3.12339 61.1753 2.94495C61.1184 2.76652 61.0165 2.61429 60.8694 2.48826C60.7224 2.36224 60.5221 2.2661 60.2685 2.19983C60.0153 2.12558 59.7009 2.08088 59.3252 2.06574L57.8264 2.00533L57.7114 4.85902ZM63.1036 9.42547L66.8344 5.71948L64.9427 1.22841L66.5401 1.56291L67.9342 4.85862L70.557 2.40409L72.1073 2.72875L68.5893 6.06247L70.5031 10.975L68.8822 10.6356L67.4803 6.90912L64.6774 9.75506L63.1036 9.42547Z" fill="#C6A47D"/>
</svg>
