<svg width="2462" height="1378" viewBox="0 0 2462 1378" fill="none" xmlns="http://www.w3.org/2000/svg">
<g clip-path="url(#clip0_1191_116123)">
<rect width="2462" height="1378" fill="#1A1C20"/>
<path opacity="0.2" d="M-18 50C160.955 7.71921 565.199 -73.8342 750.533 -61.8018C982.201 -46.7612 1294.95 20.4202 1519.07 -20.6908C1698.36 -53.5796 2235.73 -34.3945 2482 -20.6908" stroke="#585858"/>
<path opacity="0.2" d="M-18 273.565C19.6854 239.671 21.8188 239.193 24.2122 238.692C62.5866 204.699 137.202 137.19 211.908 109.479C287.855 82.4655 362.651 95.2494 437.37 88.5738C512.088 81.2005 586.727 54.3675 661.119 47.1989C736.752 40.0302 810.896 53.9213 884.623 93.8068C959.343 134.455 1034.3 201.771 1109.38 222.376C1184.46 242.282 1260.89 216.174 1336.07 189.983C1411.25 163.093 1486.42 136.818 1561.45 129.877C1636.48 123.633 1711.38 136.723 1787.25 142.513C1861.34 149.099 1936.51 148.862 2012.25 122.224C2088 94.8876 2164.32 41.1497 2241.99 34.9272C2318.42 28.0069 2394.94 68.602 2435.11 88.9893C2475.27 108.679 2479.07 108.858 2482 109.021" stroke="#585858"/>
<path opacity="0.2" d="M-18 261.13C19.5907 228.507 23.8576 227.552 28.6443 226.549C67.613 193.729 141.284 129.044 215.135 102.194C290.166 76.0066 364.199 87.6547 438.075 80.8971C511.952 73.4766 585.671 47.6504 658.894 40.6393C733.297 33.6282 806.025 46.7578 877.919 84.7694C951.799 123.573 1026.16 187.875 1100.75 207.837C1175.35 227.137 1251.35 202.761 1326.15 178.217C1400.95 153.011 1475.73 128.3 1550.23 121.743C1624.73 115.849 1698.96 128.109 1773.84 133.096C1846.47 138.941 1921.23 138.468 1997.16 113.031C2073.09 86.931 2150.19 35.8672 2228.66 30.0157C2305.96 23.5014 2383.45 62.1995 2425.99 81.7281C2468.54 100.594 2476.14 100.953 2482 101.279" stroke="#585858"/>
<path opacity="0.2" d="M-18 248.695C19.4959 217.345 25.8963 215.912 33.0764 214.407C72.6394 182.76 145.365 120.898 218.363 94.9091C292.477 69.5482 365.747 80.0604 438.781 73.2208C511.815 65.7532 584.614 40.9337 656.669 34.0802C729.841 27.2266 801.153 39.5949 871.214 75.7325C944.254 112.692 1018.02 173.979 1092.13 193.3C1166.24 211.993 1241.81 189.348 1316.23 166.452C1390.65 142.928 1465.03 119.782 1539.01 113.61C1612.98 108.066 1686.54 119.496 1760.43 123.679C1831.6 128.784 1905.96 128.074 1982.08 103.839C2058.19 78.9749 2136.05 30.5851 2215.33 25.1047C2293.49 18.9964 2371.96 55.7975 2416.88 74.4673C2461.81 92.509 2473.2 93.0474 2482 93.5368" stroke="#585858"/>
<path opacity="0.2" d="M-18 236.26C19.4012 206.182 27.9351 204.272 37.5085 202.265C77.6658 171.791 149.447 112.752 221.59 87.6242C294.788 63.0895 367.295 72.4659 439.487 65.5442C511.679 58.0295 583.557 34.2168 654.444 27.5208C726.386 20.8248 796.282 32.4317 864.51 66.6954C936.709 101.81 1009.87 160.082 1083.5 178.762C1157.12 196.848 1232.26 175.934 1306.3 154.687C1380.34 132.846 1454.34 111.264 1527.78 105.477C1601.23 100.282 1674.13 110.882 1747.02 114.262C1816.73 118.627 1890.69 117.681 1966.99 94.6461C2043.29 71.0186 2121.92 25.3028 2202 20.1935C2281.03 14.4912 2360.46 49.3953 2407.77 67.2062C2455.08 84.4241 2470.27 85.1419 2482 85.7945" stroke="#585858"/>
<path opacity="0.2" d="M-18 223.826C19.3065 195.019 29.9738 192.632 41.9406 190.123C82.6922 160.822 153.528 104.607 224.818 80.34C297.1 56.6316 368.842 64.8721 440.193 57.8685C511.543 50.3066 582.5 27.5007 652.219 20.9622C722.93 14.4238 791.41 25.2693 857.805 57.659C929.165 90.9292 1001.73 146.187 1074.87 164.224C1148.01 181.704 1222.72 162.522 1296.38 142.922C1370.04 122.764 1443.65 102.747 1516.56 97.344C1589.48 92.4994 1661.71 102.269 1733.61 104.846C1801.85 108.47 1875.42 107.287 1951.91 85.4543C2028.39 63.063 2107.79 20.0213 2188.68 15.2831C2268.57 9.98666 2348.97 42.9938 2398.66 59.946C2448.35 76.34 2467.34 77.2372 2482 78.0529" stroke="#585858"/>
<path opacity="0.2" d="M-18 211.392C19.2118 183.857 32.0125 180.992 46.3727 177.982C87.7186 149.854 157.61 96.4614 228.045 73.056C299.411 50.1739 370.39 57.2785 440.898 50.1928C511.406 42.5838 581.443 20.7846 649.994 14.4038C719.475 8.02288 786.539 18.1069 851.101 48.6227C921.62 80.0486 993.587 132.291 1066.24 149.687C1138.9 166.56 1213.18 149.109 1286.46 131.158C1359.74 112.683 1432.95 94.2297 1505.34 89.2115C1577.73 84.7167 1649.29 93.6567 1720.2 95.4299C1786.98 98.3138 1860.15 96.8944 1936.82 76.2626C2013.49 55.1075 2093.65 14.7398 2175.35 10.3727C2256.11 5.48226 2337.47 36.5924 2389.55 52.6858C2441.62 68.2559 2464.41 69.3326 2482 70.3114" stroke="#585858"/>
<path opacity="0.2" d="M-18 198.958C19.1171 172.695 34.0513 169.353 50.8048 165.841C92.745 138.886 161.691 88.3166 231.272 65.7724C301.722 43.7165 371.938 49.6852 441.604 42.5175C511.27 34.8615 580.387 14.069 647.769 7.84567C716.019 1.62235 781.667 10.945 844.396 39.5868C914.075 69.1683 985.444 118.396 1057.62 135.15C1129.79 151.416 1203.64 135.697 1276.54 119.394C1349.44 102.602 1422.26 85.7129 1494.12 81.0795C1565.98 76.9344 1636.87 85.0445 1706.79 86.0143C1772.11 88.1577 1844.88 86.5019 1921.73 67.0713C1998.59 47.1524 2079.52 9.45878 2162.02 5.46274C2243.65 0.978274 2325.98 30.1914 2380.43 45.426C2434.89 60.1722 2461.48 61.4284 2482 62.5704" stroke="#585858"/>
<path opacity="0.2" d="M-18 187.235C19.0224 162.244 36.09 158.425 55.2369 154.411C97.7714 128.629 165.773 80.8829 234.5 59.1998C304.033 37.9702 373.486 42.803 442.31 35.5533C511.134 27.8501 579.33 8.06442 645.544 1.99865C712.564 -4.06711 776.796 4.49414 837.692 31.262C906.531 58.9991 977.3 105.212 1048.99 121.324C1120.68 136.984 1194.1 122.996 1266.62 108.341C1339.14 93.2314 1411.57 77.9073 1482.9 73.6585C1554.23 69.8632 1624.46 77.1433 1693.38 77.3097C1757.23 78.7128 1829.61 76.8203 1906.65 58.5911C1983.69 39.9084 2065.39 4.88881 2148.69 1.26384C2231.19 -2.81465 2314.48 24.5015 2371.32 38.8773C2428.16 52.7996 2458.55 54.2353 2482 55.5404" stroke="#585858"/>
<path opacity="0.2" d="M-18 176.524C18.9276 152.805 38.1287 148.508 59.669 143.993C102.798 119.383 169.854 74.4605 237.727 53.6385C306.344 33.2351 375.033 36.9321 443.016 29.6004C510.998 21.8501 578.273 3.07109 643.318 -2.83712C709.108 -8.74533 771.924 -0.945471 830.987 23.9485C898.986 49.8412 969.157 93.0389 1040.36 108.51C1111.57 123.562 1184.55 111.307 1256.7 98.2989C1328.84 84.8726 1400.87 71.1129 1471.68 67.2487C1542.48 63.8033 1612.04 70.2534 1679.97 69.6164C1742.36 70.279 1814.34 68.1501 1891.56 51.1222C1968.79 33.6756 2051.25 1.33009 2135.36 -1.9238C2218.72 -5.59633 2302.99 19.8228 2362.21 33.3399C2421.43 46.4383 2455.61 48.0534 2482 49.5216" stroke="#585858"/>
<path opacity="0.2" d="M-18 165.819C18.8329 143.372 40.1675 138.597 64.1011 133.58C107.824 110.143 173.936 68.0441 240.955 48.0832C308.656 28.5061 376.581 31.0672 443.721 23.6536C510.861 15.8561 577.216 -1.91613 641.093 -7.66678C705.653 -13.4174 767.053 -6.37897 824.283 16.641C891.442 40.6893 961.013 80.8721 1031.74 95.7015C1102.46 110.147 1175.01 99.623 1246.77 88.2633C1318.53 76.5198 1390.18 64.3245 1460.45 60.8451C1530.73 57.7494 1599.62 63.3696 1666.57 61.9292C1727.49 61.8514 1799.07 59.4859 1876.48 43.6593C1953.88 27.4489 2037.12 -2.22253 2122.03 -5.10533C2206.26 -8.37189 2291.49 15.1502 2353.1 27.8085C2414.7 40.0831 2452.68 41.8776 2482 43.509" stroke="#585858"/>
<path opacity="0.2" d="M-18 155.12C18.7382 133.945 42.2062 128.693 68.5332 123.174C112.851 100.91 178.018 61.6345 244.182 42.5347C310.967 23.7839 378.129 25.2091 444.427 17.7134C510.725 9.86887 576.159 -6.89663 638.868 -12.4897C702.198 -18.0828 762.181 -11.8058 817.578 9.34027C883.897 31.5442 952.87 68.7121 1023.11 82.8998C1093.35 96.7386 1165.47 87.9461 1236.85 78.2344C1308.23 68.1738 1379.49 57.543 1449.23 54.4482C1518.98 51.7023 1587.21 56.4925 1653.16 54.2487C1712.62 53.4305 1783.8 50.8285 1861.39 36.2032C1938.98 21.229 2022.98 -5.76842 2108.7 -8.28014C2193.8 -11.1407 2280 10.4844 2343.98 22.2839C2407.97 33.7346 2449.75 35.7085 2482 37.5031" stroke="#585858"/>
<path opacity="0.2" d="M-18 144.431C18.6435 124.528 44.245 118.798 72.9653 112.778C117.877 91.6869 182.099 55.2343 247.409 36.9957C313.278 19.0711 379.677 19.3605 445.133 11.7828C510.589 3.8911 575.103 -11.8677 636.643 -17.3032C698.742 -22.7387 757.31 -17.2231 810.874 2.049C876.352 22.4086 944.727 56.5616 1014.48 70.1076C1084.24 83.3396 1155.93 76.2786 1226.93 68.2149C1297.93 59.8372 1368.8 50.7708 1438.01 48.0608C1507.23 45.6647 1574.79 49.6249 1639.75 46.5777C1697.74 45.0191 1768.53 42.1805 1846.3 28.7565C1924.08 15.0185 2008.85 -9.30484 2095.37 -11.4455C2181.34 -13.9001 2268.5 5.82798 2334.87 16.7687C2401.24 27.3955 2446.82 29.549 2482 31.5066" stroke="#585858"/>
<path opacity="0.2" d="M-18 133.753C18.5488 115.122 46.2837 108.915 77.3974 102.393C122.903 82.4746 186.181 48.8453 250.637 31.4678C315.589 14.3695 381.224 13.523 445.838 5.86329C510.453 -2.07552 574.046 -16.8275 634.418 -22.1055C695.287 -27.3835 752.438 -22.6292 804.169 -5.23111C868.808 13.2841 936.583 44.4222 1005.85 57.3265C1075.12 69.9518 1146.39 64.6223 1217.01 58.2066C1287.63 51.5118 1358.1 44.0099 1426.79 41.6845C1495.47 39.6382 1562.37 42.7684 1626.34 38.9179C1682.87 36.6189 1753.26 33.5437 1831.22 21.321C1909.18 8.81921 1994.72 -12.8301 2082.05 -14.5997C2168.88 -16.6483 2257.01 1.18275 2325.76 11.2647C2394.51 21.0676 2443.89 23.4005 2482 25.5213" stroke="#585858"/>
<path opacity="0.2" d="M-18 123.09C18.4541 105.731 48.3224 99.0458 81.8295 92.0224C127.93 73.277 190.262 42.471 253.864 25.9547C317.9 9.68262 382.772 7.70025 446.544 -0.0414734C510.316 -8.0274 572.989 -21.7727 632.193 -26.8931C691.831 -32.0135 747.567 -28.0206 797.465 -12.4965C861.263 4.17432 928.44 32.2975 997.227 44.5602C1066.01 56.5787 1136.85 52.9808 1207.09 48.2131C1277.33 43.2012 1347.41 37.2636 1415.57 35.3229C1483.72 33.6264 1549.96 35.9267 1612.93 31.2727C1668 28.2333 1737.99 24.9216 1816.13 13.9002C1894.28 2.63463 1980.58 -16.3406 2068.72 -17.7391C2156.42 -19.3818 2245.51 -3.44773 2316.65 5.77548C2387.78 14.7545 2440.95 17.2668 2482 19.5508" stroke="#585858"/>
<path opacity="0.2" d="M-18 112.446C18.3593 96.3588 50.3612 89.1966 86.2616 81.6715C132.956 64.099 194.344 36.1163 257.092 20.4611C320.212 5.01529 384.32 1.89704 447.25 -5.92669C510.18 -13.9597 571.932 -26.6983 629.968 -31.6611C688.376 -36.624 742.695 -33.3925 790.76 -19.7423C853.718 -4.91589 920.296 20.1924 988.599 31.8134C1056.9 43.2251 1127.3 41.3588 1197.16 38.2391C1267.02 34.91 1336.72 30.537 1404.34 28.9809C1471.97 27.6342 1537.54 29.1045 1599.52 23.6472C1653.13 19.8674 1722.72 16.3191 1801.05 6.49901C1879.38 -3.5304 1966.45 -19.8316 2055.39 -20.859C2143.95 -22.0958 2234.02 -8.05867 2307.53 0.305767C2381.05 8.46089 2438.02 11.1527 2482 13.5998" stroke="#585858"/>
<path opacity="0.2" d="M-18 101.829C18.2646 87.0137 52.3999 79.374 90.6937 71.3473C137.983 54.9477 198.425 29.7882 260.319 14.9942C322.523 0.37464 385.868 -3.87948 447.956 -11.7852C510.044 -19.8654 570.875 -31.5972 627.743 -36.4025C684.92 -41.2078 737.824 -38.7377 784.056 -26.9615C846.174 -13.9794 912.153 8.11401 979.972 19.0933C1047.79 29.8982 1117.76 29.7635 1187.24 28.2917C1256.72 26.6456 1326.02 23.8369 1393.12 22.6656C1460.22 21.6687 1525.12 22.309 1586.11 16.0483C1638.25 11.5281 1707.45 7.74325 1785.96 -0.875534C1864.48 -9.66875 1952.32 -23.2959 2042.06 -23.9523C2131.49 -24.783 2222.52 -12.6429 2298.42 -5.13727C2374.32 2.19396 2435.09 5.06521 2482 7.67543" stroke="#585858"/>
<path opacity="0.2" d="M-18 91.2504C18.1699 77.7066 54.4387 69.5895 95.1258 61.0611C143.009 45.8344 202.507 23.4982 263.546 9.56532C324.834 -4.22801 387.415 -9.61801 448.661 -17.6058C509.907 -25.733 569.818 -36.4581 625.518 -41.1058C681.465 -45.7536 732.952 -44.0449 777.351 -34.1426C838.629 -23.0049 904.009 -3.92641 971.345 6.41125C1038.68 16.6094 1108.22 18.2061 1177.32 18.3824C1246.42 18.4192 1315.33 17.1749 1381.9 16.3883C1448.47 15.7411 1512.71 15.5515 1572.7 8.48736C1623.38 3.22677 1692.17 -0.794603 1770.88 -8.21208C1849.58 -15.7691 1938.18 -26.7222 2028.73 -27.0075C2119.03 -27.4323 2211.03 -17.1892 2289.31 -10.5423C2367.59 -4.03496 2432.16 -0.984266 2482 1.78909" stroke="#585858"/>
<path opacity="0.2" d="M-18 80.7268C18.0752 68.455 56.4774 59.8603 99.5579 50.8303C148.035 36.7765 206.589 17.2635 266.774 4.19179C327.145 -8.77528 388.963 -15.3011 449.367 -23.3709C509.771 -31.5453 568.762 -41.2636 623.293 -45.7538C678.01 -50.244 728.081 -49.2967 770.647 -41.2684C831.084 -31.9751 895.866 -15.9114 962.718 -6.21546C1029.57 3.37587 1098.68 6.7042 1167.4 8.52848C1236.12 10.2481 1304.64 10.5683 1370.68 10.1663C1436.72 9.86897 1500.29 8.8494 1559.29 0.981846C1608.51 -5.01915 1676.9 -9.27707 1755.79 -15.4932C1834.67 -21.8141 1924.05 -30.0932 2015.4 -30.0073C2106.57 -30.0262 2199.53 -21.6801 2280.2 -15.892C2360.86 -10.2085 2429.23 -6.97835 2482 -4.04185" stroke="#585858"/>
<path opacity="0.2" d="M-18 70.2914C17.9805 59.2915 58.5161 50.2194 103.99 40.6876C153.062 27.8067 210.67 11.117 270.001 -1.09356C329.457 -13.2344 390.511 -20.8961 450.073 -29.0479C509.635 -37.2694 567.705 -45.981 621.067 -50.3136C674.554 -54.6462 723.21 -54.4604 763.942 -48.306C823.54 -40.8571 887.722 -27.8083 954.09 -18.754C1020.46 -9.76947 1089.14 -4.70957 1157.48 -1.23729C1225.82 2.16521 1293.94 4.04987 1359.46 4.03254C1424.97 4.08499 1487.87 2.23545 1545.88 -6.4355C1593.63 -13.1769 1661.63 -17.6714 1740.7 -22.6862C1819.77 -27.7709 1909.91 -33.3759 2002.07 -32.919C2094.11 -32.5319 2188.04 -26.0828 2271.08 -21.1534C2354.13 -16.2939 2426.3 -12.8843 2482 -9.78463" stroke="#585858"/>
<path opacity="0.2" d="M-18 60.0046C17.8857 50.2765 60.5549 40.7269 108.422 30.6935C158.088 18.9855 214.752 5.1191 273.229 -6.23035C331.768 -17.5449 392.059 -26.3425 450.779 -34.5763C509.499 -42.8449 566.648 -50.5498 618.842 -54.7248C671.099 -58.8999 718.338 -59.4754 757.238 -55.195C815.995 -49.5905 879.579 -39.5566 945.463 -31.144C1011.35 -22.7662 1079.59 -15.9748 1147.55 -10.8545C1215.52 -5.76911 1283.25 -2.32001 1348.24 -1.95266C1413.22 -1.55043 1475.46 -4.22993 1532.48 -13.7043C1578.76 -21.1861 1646.36 -25.9171 1725.62 -29.7307C1804.87 -33.5791 1895.78 -36.5101 1988.74 -35.6821C2081.65 -34.889 2176.54 -30.3369 2261.97 -26.2664C2347.4 -22.2307 2423.36 -18.6416 2482 -15.3788" stroke="#585858"/>
<path opacity="0.4" d="M-18 286L19.7801 250.834C57.5602 215.668 133.12 145.336 208.681 116.764C285.544 88.9245 361.104 102.844 436.664 96.2507C512.224 88.9245 587.784 61.0848 663.344 53.7586C740.207 46.4324 815.768 61.0848 891.328 102.844C966.888 145.336 1042.45 215.668 1118.01 236.914C1193.57 257.428 1270.43 229.588 1345.99 201.748C1421.55 173.176 1497.11 145.336 1572.67 138.01C1648.23 131.417 1723.79 145.336 1800.66 151.93C1876.22 159.256 1951.78 159.256 2027.34 131.417C2102.9 102.844 2178.46 46.4324 2255.32 39.8388C2330.88 32.5126 2406.44 75.0047 2444.22 96.2507L2482 116.764" stroke="#585858" stroke-width="2"/>
<path opacity="0.2" d="M-18 291.297C1.59792 272.547 4.71224 268.539 7.7261 267.394C28.831 249.503 31.9453 251.221 35.0596 251.793C74.0545 218.875 149.131 151.319 224.207 122.676C300.524 94.7303 375.5 105.697 450.577 99.7034C525.653 93.0124 600.73 69.3616 675.806 63.8159C752.023 58.2702 827.099 72.2249 902.176 111.423C977.252 151.319 1052.23 217.157 1127.3 237.391C1202.38 256.928 1278.7 231.559 1353.67 204.759C1428.75 177.261 1503.83 149.029 1578.9 142.338C1653.98 136.344 1728.96 151.892 1805.27 157.885C1880.35 164.576 1955.43 161.713 2030.4 134.34C2105.48 106.269 2180.55 53.689 2256.87 48.5547C2331.85 42.7226 2406.92 84.3366 2444.51 105.144L2482 125.253" stroke="#585858"/>
<path opacity="0.2" d="M-18 296.645C2.30578 276.728 8.53443 268.711 14.5622 266.42C37.8818 248.221 44.1105 251.657 50.3391 252.803C90.5488 222.131 165.141 157.352 239.734 128.638C315.505 100.586 389.897 108.599 464.49 103.206C539.082 97.1505 613.675 77.6887 688.268 73.9235C763.838 70.1582 838.431 83.4152 913.023 120.052C987.616 157.352 1062.01 218.695 1136.6 237.918C1211.19 256.478 1286.96 233.58 1361.36 207.819C1435.95 181.395 1510.54 152.771 1585.13 146.715C1659.73 141.322 1734.12 158.498 1809.89 163.891C1884.48 169.946 1959.07 164.22 2033.47 137.314C2108.06 109.745 2182.65 60.9959 2258.42 57.3208C2332.81 52.9829 2407.41 93.7187 2444.8 114.087L2482 133.792" stroke="#585858"/>
<path opacity="0.2" d="M-18 302.05C3.01365 280.966 12.3566 268.94 21.3982 265.505C46.9327 246.998 56.2756 252.151 65.6186 253.869C107.043 225.445 181.152 163.443 255.261 134.657C330.486 106.5 404.294 111.56 478.403 106.767C552.512 101.346 626.62 86.0733 700.729 84.0885C775.653 82.1037 849.762 94.663 923.871 128.739C997.98 163.443 1071.79 220.291 1145.9 238.502C1220.01 256.085 1295.23 235.658 1369.04 210.937C1443.15 185.587 1517.26 156.571 1591.36 151.15C1665.47 146.358 1739.28 165.161 1814.51 169.953C1888.62 175.374 1962.72 166.784 2036.53 140.345C2110.64 113.277 2184.75 68.3602 2259.97 66.1444C2333.78 63.3007 2407.89 103.158 2445.1 123.087L2482 142.388" stroke="#585858"/>
<path opacity="0.2" d="M-18 307.521C3.72152 285.27 16.1788 269.236 28.2343 264.655C55.9835 245.84 68.4408 252.712 80.8981 255.002C123.537 228.825 197.163 169.599 270.788 140.743C345.467 112.48 418.691 114.586 492.316 110.393C565.941 105.608 639.566 94.5239 713.191 94.3196C787.469 94.1153 861.094 105.977 934.719 137.492C1008.34 169.599 1081.57 221.953 1155.19 239.153C1228.82 255.759 1303.5 237.803 1376.72 214.121C1450.35 189.846 1523.97 160.437 1597.6 155.652C1671.22 151.459 1744.44 171.89 1819.12 176.082C1892.75 180.868 1966.37 169.415 2039.6 143.442C2113.22 116.876 2186.85 75.7907 2261.53 75.0342C2334.75 73.6846 2408.37 112.664 2445.39 132.154L2482 151.051" stroke="#585858"/>
<path opacity="0.2" d="M-18 313.078C4.42939 289.66 20.001 269.618 35.0703 263.891C65.0344 244.768 80.606 253.358 96.1776 256.221C140.032 232.291 213.173 175.842 286.314 146.914C360.448 118.545 433.087 117.698 506.229 114.106C579.37 109.956 652.511 103.061 725.652 104.637C799.284 106.213 872.425 117.377 945.567 146.33C1018.71 175.842 1091.35 223.702 1164.49 239.889C1237.63 255.518 1311.76 240.034 1384.4 217.391C1457.54 194.19 1530.68 164.389 1603.83 160.239C1676.97 156.647 1749.61 178.705 1823.74 182.297C1896.88 186.447 1970.02 172.131 2042.66 146.625C2115.8 120.561 2188.94 83.307 2263.08 84.0098C2335.72 84.1544 2408.86 122.256 2445.68 141.306L2482 159.799" stroke="#585858"/>
<path opacity="0.2" d="M-18 318.749C5.13725 294.165 23.8232 270.113 41.9064 263.242C74.0852 243.811 92.7712 254.118 111.457 257.554C156.526 235.872 229.184 182.199 301.841 153.2C375.429 124.725 447.484 120.924 520.141 117.933C592.799 114.417 665.456 111.711 738.114 115.068C811.099 118.425 883.757 128.891 956.414 155.283C1029.07 182.199 1101.13 225.564 1173.78 240.74C1246.44 255.392 1320.03 242.378 1392.08 220.775C1464.74 198.648 1537.4 168.455 1610.06 164.94C1682.71 161.948 1754.77 185.635 1828.36 188.626C1901.01 192.141 1973.67 174.962 2045.73 149.923C2118.38 124.36 2191.04 90.9377 2264.63 93.0998C2336.68 94.7385 2409.34 131.962 2445.97 150.573L2482 168.662" stroke="#585858"/>
<path opacity="0.2" d="M-18 324.534C5.84512 298.782 27.6454 270.722 48.7424 262.705C83.1361 242.966 104.936 254.992 126.737 259C173.02 239.565 245.194 188.668 317.368 159.599C390.41 131.018 461.881 124.264 534.054 121.872C606.228 118.992 678.402 120.475 750.576 125.612C822.915 130.749 895.088 140.518 967.262 164.349C1039.44 188.668 1110.91 227.539 1183.08 241.703C1255.25 255.379 1328.3 244.836 1399.77 224.272C1471.94 203.22 1544.11 172.634 1616.29 169.754C1688.46 167.363 1759.93 192.677 1832.97 195.068C1905.15 197.948 1977.32 177.906 2048.79 153.333C2120.97 128.272 2193.14 98.6812 2266.18 102.303C2337.65 105.435 2409.83 141.781 2446.26 159.953L2482 177.637" stroke="#585858"/>
<path opacity="0.2" d="M-18 330.459C6.55299 303.541 31.4676 271.472 55.5785 262.31C92.187 242.263 117.102 256.007 142.016 260.588C189.515 243.4 261.205 195.28 332.895 166.139C405.391 137.452 476.277 127.744 547.967 125.953C619.657 123.709 691.347 129.38 763.037 136.298C834.73 143.216 906.42 152.286 978.11 173.556C1049.8 195.28 1120.69 229.656 1192.38 242.808C1264.07 255.507 1336.56 247.435 1407.45 227.911C1479.14 207.933 1550.83 176.955 1622.52 174.71C1694.21 172.919 1765.09 199.861 1837.59 201.652C1909.28 203.897 1980.97 180.991 2051.86 156.885C2123.55 132.326 2195.24 106.566 2267.73 111.647C2338.62 116.274 2410.31 151.741 2446.56 169.474L2482 186.754" stroke="#585858"/>
<path opacity="0.2" d="M-18 336.564C7.26086 308.478 35.2898 272.402 62.4146 262.094C101.238 241.739 129.267 257.2 157.296 262.354C206.009 247.413 277.215 202.07 348.421 172.858C420.372 144.065 490.674 131.404 561.88 130.214C633.086 128.604 704.293 138.465 775.499 147.163C846.545 155.861 917.751 164.234 988.958 182.943C1060.16 202.07 1130.47 231.952 1201.67 244.092C1272.88 255.814 1344.83 250.214 1415.13 231.728C1486.34 212.824 1557.54 181.455 1628.75 179.845C1699.96 178.654 1770.26 207.224 1842.21 208.415C1913.41 210.024 1984.62 184.255 2054.92 160.616C2126.13 136.558 2197.34 114.63 2269.29 121.17C2339.59 127.291 2410.79 161.88 2446.85 179.175L2482 196.051" stroke="#585858"/>
<path opacity="0.2" d="M-18 342.896C7.96873 313.644 39.112 273.558 69.2506 262.105C110.289 241.442 141.432 258.622 172.575 264.348C222.503 251.654 293.226 209.088 363.948 179.805C435.353 150.906 505.071 135.292 575.793 134.701C646.516 133.727 717.238 147.776 787.96 158.255C858.361 168.734 929.083 176.409 999.805 192.556C1070.53 209.088 1140.25 234.475 1210.97 245.604C1281.69 256.349 1353.1 253.219 1422.81 235.773C1493.54 217.944 1564.26 186.182 1634.98 185.207C1705.7 184.617 1775.42 214.814 1846.83 215.405C1917.55 216.379 1988.27 187.747 2057.99 164.574C2128.71 141.018 2199.43 122.922 2270.84 130.921C2340.56 138.536 2411.28 172.247 2447.14 189.102L2482 205.574" stroke="#585858"/>
<path opacity="0.2" d="M-18 349.516C8.67659 319.096 42.9342 275.003 76.0867 262.404C119.34 241.433 153.597 260.331 187.855 266.63C238.998 256.183 309.236 216.393 379.475 187.039C450.334 158.034 519.467 139.466 589.706 139.476C659.945 139.137 730.183 157.376 800.422 169.635C870.176 181.894 940.415 188.871 1010.65 202.458C1080.89 216.393 1150.03 237.286 1220.26 247.403C1290.5 257.171 1361.36 256.513 1430.5 240.106C1500.73 223.351 1570.97 191.196 1641.21 190.857C1711.45 190.867 1780.58 222.692 1851.44 222.682C1921.68 223.021 1991.92 191.526 2061.05 168.82C2131.29 145.766 2201.53 131.501 2272.39 140.959C2341.52 150.069 2411.76 182.901 2447.43 199.318L2482 215.385" stroke="#585858"/>
<path opacity="0.2" d="M-18 358.897C9.38446 327.31 46.7564 279.208 82.9227 265.465C128.39 244.186 165.762 264.801 203.134 271.673C255.492 263.473 325.247 226.459 395.002 197.035C465.315 167.924 533.864 146.403 603.619 147.013C673.374 147.309 743.129 169.736 812.884 183.776C881.991 197.815 951.746 204.095 1021.5 215.12C1091.26 226.459 1159.81 242.858 1229.56 251.963C1299.31 260.755 1369.63 262.567 1438.18 247.2C1507.93 231.519 1577.69 198.972 1647.44 199.268C1717.2 199.878 1785.75 233.331 1856.06 232.721C1925.81 232.425 1995.57 198.066 2064.12 175.827C2133.87 153.274 2203.63 142.841 2273.94 153.759C2342.49 164.363 2412.25 196.317 2447.73 212.294L2482 227.958" stroke="#585858"/>
<path opacity="0.2" d="M-18 369.772C10.0923 337.018 50.5786 284.908 89.7588 270.019C137.441 248.432 177.927 270.765 218.414 278.209C271.986 272.257 341.257 238.02 410.529 208.524C480.296 179.308 548.261 154.833 617.532 156.043C686.803 156.974 756.074 183.591 825.345 199.411C893.807 215.231 963.078 220.813 1032.35 229.277C1101.62 238.02 1169.58 249.924 1238.86 258.018C1308.13 265.832 1377.89 270.116 1445.86 255.788C1515.13 241.181 1584.4 208.242 1653.67 209.173C1722.94 210.384 1790.91 245.464 1860.68 244.254C1929.95 243.323 1999.22 206.101 2067.18 184.328C2136.45 162.277 2205.73 155.676 2275.49 168.053C2343.46 180.15 2412.73 211.227 2448.02 226.765L2482 242.024" stroke="#585858"/>
<path opacity="0.2" d="M-18 380.659C10.8002 346.738 54.4008 290.619 96.5949 274.585C146.492 252.689 190.093 276.741 233.693 284.758C288.481 281.053 357.268 249.592 426.055 220.025C495.277 190.703 562.658 163.274 631.445 165.085C700.232 166.651 769.02 197.457 837.807 215.057C905.622 232.658 974.409 237.542 1043.2 243.445C1111.98 249.592 1179.36 257.002 1248.15 264.084C1316.94 270.921 1386.16 277.676 1453.54 264.387C1522.33 250.855 1591.12 217.524 1659.9 219.09C1728.69 220.901 1796.07 257.609 1865.29 255.798C1934.08 254.232 2002.87 214.146 2070.25 192.841C2139.04 171.291 2207.82 168.521 2277.04 182.358C2344.43 195.95 2413.21 226.148 2448.31 241.247L2482 256.102" stroke="#585858"/>
<path opacity="0.2" d="M-18 391.553C11.5081 356.465 58.2229 296.337 103.431 279.158C155.543 256.955 202.258 282.724 248.973 291.314C304.975 289.856 373.279 261.172 441.582 231.534C510.258 202.105 577.054 171.724 645.358 174.135C713.661 176.336 781.965 211.331 850.268 230.712C917.437 250.093 985.741 254.279 1054.04 257.621C1122.35 261.172 1189.14 264.087 1257.45 270.157C1325.75 276.018 1394.43 285.243 1461.22 272.994C1529.53 260.536 1597.83 226.813 1666.13 229.014C1734.44 231.425 1801.23 269.761 1869.91 267.35C1938.21 265.149 2006.52 222.2 2073.31 201.361C2141.62 180.313 2209.92 181.375 2278.6 196.671C2345.39 211.757 2413.7 241.077 2448.6 255.737L2482 270.187" stroke="#585858"/>
<path opacity="0.2" d="M-18 402.453C12.2159 366.198 62.0451 302.062 110.267 283.737C164.594 261.226 214.423 288.713 264.252 297.876C321.469 298.665 389.289 272.757 457.109 243.048C525.239 213.514 591.451 180.179 659.271 183.19C727.091 186.027 794.91 225.21 862.73 246.372C929.253 267.533 997.072 271.022 1064.89 271.802C1132.71 272.757 1198.92 271.178 1266.74 276.237C1334.56 281.121 1402.69 292.817 1468.91 281.607C1536.73 270.223 1604.55 236.108 1672.36 238.944C1740.18 241.956 1806.4 281.919 1874.53 278.908C1942.35 276.071 2010.17 230.26 2076.38 209.888C2144.2 189.341 2212.02 194.234 2280.15 210.989C2346.36 227.57 2414.18 256.011 2448.89 270.232L2482 284.279" stroke="#585858"/>
<path opacity="0.2" d="M-18 413.357C12.9238 375.936 65.8673 307.791 117.103 288.321C173.645 265.502 226.588 294.707 279.532 304.441C337.964 307.478 405.3 284.347 472.636 254.567C540.22 224.927 605.848 188.638 673.184 192.25C740.52 195.722 807.856 239.094 875.192 262.036C941.068 284.978 1008.4 287.769 1075.74 285.988C1143.08 284.347 1208.7 278.273 1276.04 282.32C1343.38 286.227 1410.96 300.395 1476.59 290.224C1543.92 279.915 1611.26 245.407 1678.6 248.879C1745.93 252.49 1811.56 294.082 1879.14 290.47C1946.48 286.998 2013.82 238.323 2079.44 218.418C2146.78 198.373 2214.12 207.098 2281.7 225.312C2347.33 243.386 2414.66 270.95 2449.19 284.732L2482 298.374" stroke="#585858"/>
<path opacity="0.2" d="M-18 424.265C13.6317 385.676 69.6895 313.523 123.939 292.907C182.696 269.78 238.753 300.703 294.811 311.011C354.458 316.295 421.31 295.94 488.162 266.089C555.201 236.343 620.244 197.101 687.097 201.312C753.949 205.42 820.801 252.981 887.653 277.703C952.883 302.426 1019.74 304.519 1086.59 300.177C1153.44 295.94 1218.48 285.372 1285.34 288.407C1352.19 291.337 1419.23 307.976 1484.27 298.845C1551.12 289.609 1617.97 254.709 1684.83 258.816C1751.68 263.028 1816.72 306.247 1883.76 302.035C1950.61 297.928 2017.47 246.39 2082.51 226.951C2149.36 207.408 2216.21 219.965 2283.25 239.638C2348.3 259.207 2415.15 285.892 2449.48 299.235L2482 312.473" stroke="#585858"/>
<path opacity="0.2" d="M-18 435.174C14.3395 395.419 73.5117 319.257 130.775 297.496C191.746 274.061 250.919 306.702 310.091 317.582C370.952 325.114 437.321 307.535 503.689 277.613C570.182 247.761 634.641 205.566 701.01 210.378C767.378 215.12 833.746 266.87 900.115 293.373C964.699 319.876 1031.07 321.272 1097.44 314.368C1163.8 307.535 1228.26 292.473 1294.63 294.496C1361 296.45 1427.49 315.559 1491.95 307.467C1558.32 299.306 1624.69 264.014 1691.06 268.756C1757.43 273.568 1821.89 318.415 1888.38 313.603C1954.75 308.861 2021.11 254.459 2085.57 235.488C2151.94 216.446 2218.31 232.834 2284.8 253.967C2349.26 275.029 2415.63 300.837 2449.77 313.74L2482 326.574" stroke="#585858"/>
<path opacity="0.2" d="M-18 446.086C15.0474 405.164 77.3339 324.993 137.611 302.088C200.797 278.344 263.084 312.703 325.37 324.156C387.447 333.935 453.331 319.132 519.216 289.14C585.163 259.182 649.038 214.033 714.922 219.445C780.807 224.823 846.692 280.762 912.576 309.045C976.514 337.329 1042.4 338.026 1108.28 328.562C1174.17 319.132 1238.04 299.576 1303.93 300.587C1369.81 301.564 1435.76 323.144 1499.63 316.092C1565.52 309.005 1631.4 273.321 1697.29 278.698C1763.17 284.111 1827.05 330.585 1892.99 325.173C1958.88 319.795 2024.76 262.531 2088.64 244.026C2154.52 225.486 2220.41 245.705 2286.36 268.297C2350.23 290.854 2416.12 315.783 2450.06 328.248L2482 340.678" stroke="#585858"/>
<path opacity="0.4" d="M-18 457C15.7553 414.911 81.1561 330.732 144.447 306.68C209.848 282.629 275.249 318.706 340.65 330.732C403.941 342.757 469.342 330.732 534.743 300.668C600.143 270.604 663.435 222.501 728.835 228.514C794.236 234.527 859.637 294.655 925.038 324.719C988.329 354.783 1053.73 354.783 1119.13 342.757C1184.53 330.732 1247.82 306.68 1313.22 306.68C1378.62 306.68 1444.03 330.732 1507.32 324.719C1572.72 318.706 1638.12 282.629 1703.52 288.642C1768.92 294.655 1832.21 342.757 1897.61 336.744C1963.01 330.732 2028.41 270.604 2091.7 252.565C2157.11 234.527 2222.51 258.578 2287.91 282.629C2351.2 306.68 2416.6 330.732 2450.35 342.757L2482 354.783" stroke="#585858" stroke-width="2"/>
<path opacity="0.2" d="M-18 455.282L138.15 312.12L326.448 335.026C388.114 346.479 451.5 334.496 515.245 305.409C578.991 276.321 641.087 230.129 706.2 236.155C774.241 242.48 846.218 303.061 914.159 331.394C977.264 359.877 1042.38 359.353 1107.49 347.489C1172.61 335.624 1235.71 312.419 1300.82 312.719C1368.77 313.317 1436.81 339.215 1502.74 332.89C1567.85 326.864 1632.97 291.309 1698.08 295.651C1763.19 299.994 1826.3 344.235 1891.41 337.461C1959.35 329.64 2027.29 272.376 2093.33 256.393C2158.44 239.812 2223.55 263.616 2288.31 287.419C2351.05 311.223 2415.45 335.026 2448.98 347.077L2482 359.727" stroke="#585858"/>
<path opacity="0.2" d="M-18 453.565L131.853 317.561L312.247 339.322C372.288 350.202 433.658 338.262 495.748 310.151C557.838 282.04 618.738 237.758 683.565 243.797C754.246 250.434 832.799 311.468 903.28 338.071C966.199 364.972 1031.03 363.925 1095.85 352.222C1160.68 340.519 1223.6 318.16 1288.42 318.758C1358.91 319.955 1429.59 347.7 1498.16 341.063C1562.99 335.024 1627.81 299.99 1692.64 302.662C1757.47 305.335 1820.39 345.714 1885.21 338.179C1955.69 328.55 2026.18 274.149 2094.95 260.222C2159.77 245.099 2224.6 268.654 2288.71 292.21C2350.91 315.766 2414.3 339.322 2447.61 351.399L2482 364.673" stroke="#585858"/>
<path opacity="0.2" d="M-18 451.85L125.556 323.005L298.045 343.62C356.461 353.927 415.817 342.03 476.251 314.896C536.685 287.761 596.39 245.39 660.93 251.441C734.25 258.39 819.379 319.878 892.402 344.749C955.133 370.07 1019.67 368.499 1084.21 356.957C1148.75 345.415 1211.49 323.902 1276.03 324.8C1349.05 326.595 1422.37 356.186 1493.58 349.237C1558.12 343.186 1622.66 308.673 1687.2 309.675C1751.74 310.677 1814.47 347.195 1879.01 338.9C1952.03 327.463 2025.06 275.925 2096.57 264.054C2161.11 250.387 2225.65 273.695 2289.11 297.004C2350.76 320.312 2413.14 343.62 2446.24 355.723L2482 369.621" stroke="#585858"/>
<path opacity="0.2" d="M-18 450.137L119.259 328.45L283.843 347.92C340.635 357.655 397.975 345.8 456.754 319.642C515.533 293.484 574.042 253.023 638.295 259.087C714.255 266.348 805.96 328.289 881.523 351.43C944.068 375.169 1008.32 373.074 1072.57 361.694C1136.83 350.313 1199.37 329.646 1263.63 330.843C1339.19 333.237 1415.15 364.675 1489 357.414C1553.26 351.35 1617.51 317.357 1681.76 316.69C1746.01 316.022 1808.56 348.678 1872.81 339.622C1948.38 326.377 2023.94 277.702 2098.19 267.887C2162.44 255.678 2226.7 278.738 2289.51 301.799C2350.62 324.859 2411.99 347.92 2444.87 360.048L2482 374.571" stroke="#585858"/>
<path opacity="0.2" d="M-18 448.427L112.962 333.897L269.642 352.222C324.808 361.384 380.133 349.572 437.257 324.391C494.38 299.209 551.694 260.658 615.66 266.736C694.259 274.309 792.541 336.703 870.644 358.113C933.003 380.271 996.969 377.653 1060.93 366.433C1124.9 355.214 1187.26 335.393 1251.23 336.889C1329.33 339.881 1407.93 373.166 1484.42 365.593C1548.39 359.516 1612.36 326.045 1676.32 323.707C1740.29 321.369 1802.65 350.164 1866.61 340.347C1944.72 325.294 2022.82 279.482 2099.81 271.723C2163.78 260.971 2227.74 283.784 2289.91 306.597C2350.47 329.409 2410.84 352.222 2443.5 364.376L2482 379.523" stroke="#585858"/>
<path opacity="0.2" d="M-18 447.017L106.665 339.646L255.44 356.826C308.982 365.415 362.292 353.646 417.76 329.441C473.227 305.236 529.346 268.595 593.025 274.685C674.264 282.571 779.122 345.418 859.765 365.097C921.937 385.674 985.617 382.532 1049.3 371.474C1112.97 360.416 1175.15 341.441 1238.83 343.237C1319.47 346.827 1400.71 381.959 1479.85 374.074C1543.52 367.983 1607.2 335.033 1670.88 331.025C1734.56 327.017 1796.73 351.951 1860.41 341.373C1941.06 324.512 2021.7 281.563 2101.43 275.859C2165.11 266.565 2228.79 289.13 2290.31 311.695C2350.33 334.261 2409.69 356.826 2442.13 369.006L2482 384.776" stroke="#585858"/>
<path opacity="0.2" d="M-18 448.546L100.368 348.333L241.239 364.367C293.155 372.384 344.45 360.658 398.262 337.429C452.075 314.201 506.998 279.47 570.39 285.573C654.269 293.77 765.703 357.072 848.886 375.02C910.872 394.015 974.264 390.35 1037.66 379.453C1101.05 368.556 1163.03 350.428 1226.43 352.522C1309.61 356.711 1393.49 393.689 1475.27 385.492C1538.66 379.389 1602.05 346.96 1665.44 341.282C1728.84 335.604 1790.82 356.676 1854.21 345.337C1937.4 326.667 2020.58 286.582 2103.05 282.934C2166.45 275.098 2229.84 297.415 2290.71 319.732C2350.18 342.05 2408.54 364.367 2440.76 376.573L2482 392.968" stroke="#585858"/>
<path opacity="0.2" d="M-18 450.135L94.0705 357.08L227.037 371.969C277.329 379.413 326.608 367.729 378.765 345.477C430.922 323.225 484.65 290.405 547.755 296.521C634.273 305.03 752.283 368.785 838.008 385.002C899.807 402.416 962.912 398.227 1026.02 387.492C1089.12 376.756 1150.92 359.474 1214.03 361.867C1299.75 366.654 1386.27 405.48 1470.69 396.97C1533.79 390.854 1596.9 358.947 1660 351.598C1723.11 344.25 1784.91 361.461 1848.01 349.361C1933.74 328.883 2019.46 291.661 2104.67 290.069C2167.78 283.69 2230.88 305.76 2291.11 327.829C2350.04 349.899 2407.39 371.969 2439.39 384.2L2482 401.219" stroke="#585858"/>
<path opacity="0.2" d="M-18 451.793L87.7734 365.896L212.836 379.639C261.502 386.511 308.767 374.87 359.268 353.594C409.769 332.319 462.302 301.409 525.12 307.537C614.278 316.359 738.864 380.567 827.129 395.053C888.742 410.886 951.56 406.174 1014.38 395.599C1077.2 385.025 1138.81 368.589 1201.63 371.281C1289.89 376.667 1379.05 417.339 1466.11 408.518C1528.93 402.389 1591.75 371.002 1654.56 361.984C1717.38 352.965 1779 366.315 1841.81 353.454C1930.08 331.168 2018.34 296.809 2106.3 297.273C2169.11 292.351 2231.93 314.173 2291.51 335.995C2349.89 357.817 2406.24 379.639 2438.02 391.897L2482 409.54" stroke="#585858"/>
<path opacity="0.2" d="M-18 453.532L81.4763 374.793L198.634 387.392C245.675 393.691 290.925 382.092 339.771 361.793C388.617 341.494 439.954 312.494 502.485 318.636C594.282 327.77 725.445 392.431 816.25 405.186C877.676 419.438 940.208 414.202 1002.74 403.789C1065.27 393.376 1126.7 377.785 1189.23 380.777C1280.03 386.762 1371.83 429.28 1461.53 420.147C1524.06 414.005 1586.59 383.14 1649.12 372.451C1711.66 361.762 1773.08 371.25 1835.61 357.629C1926.42 333.535 2017.22 302.039 2107.92 304.559C2170.45 301.094 2232.98 322.669 2291.91 344.243C2349.74 365.817 2405.08 387.392 2436.65 399.675L2482 417.942" stroke="#585858"/>
<path opacity="0.2" d="M-18 455.722L75.1793 384.141L184.432 395.594C229.849 401.321 273.083 389.765 320.274 370.442C367.464 351.12 417.606 324.03 479.85 330.185C574.287 339.631 712.026 404.745 805.371 415.77C866.611 428.44 928.856 422.681 991.1 412.429C1053.34 402.177 1114.58 387.433 1176.83 390.724C1270.17 397.306 1364.61 441.672 1456.95 432.226C1519.2 426.072 1581.44 395.727 1643.69 383.368C1705.93 371.01 1767.17 376.636 1829.41 362.254C1922.76 336.352 2016.11 307.719 2109.54 312.295C2171.78 310.288 2234.03 331.614 2292.32 352.941C2349.6 374.268 2403.93 395.594 2435.28 407.903L2482 426.795" stroke="#585858"/>
<path opacity="0.2" d="M-18 458.363L68.8822 393.94L170.231 404.248C214.022 409.402 255.242 397.889 300.777 379.543C346.311 361.196 395.258 336.017 457.215 342.185C554.292 351.942 698.606 417.51 794.492 426.804C855.546 437.894 917.503 431.61 979.461 421.52C1041.42 411.429 1102.47 397.531 1164.43 401.121C1260.32 408.302 1357.39 454.514 1452.37 444.757C1514.33 438.589 1576.29 408.766 1638.25 394.737C1700.2 380.708 1761.26 382.473 1823.21 367.33C1919.1 339.62 2014.99 313.851 2111.16 320.482C2173.12 319.932 2235.07 341.011 2292.72 362.09C2349.45 383.169 2402.78 404.248 2433.91 416.583L2482 436.098" stroke="#585858"/>
<path opacity="0.2" d="M-18 461.245L62.5851 403.98L156.029 413.143C198.196 417.724 237.4 406.254 281.279 388.884C325.159 371.514 372.91 348.245 434.58 354.426C534.296 364.495 685.187 430.517 783.614 438.08C844.481 447.588 906.151 440.781 967.822 430.852C1029.49 420.922 1090.36 407.87 1152.03 411.76C1250.46 419.539 1350.17 467.598 1447.8 457.528C1509.47 451.348 1571.14 422.046 1632.81 406.347C1694.48 390.648 1755.34 388.551 1817.01 372.647C1915.44 343.129 2013.87 320.223 2112.78 328.91C2174.45 329.817 2236.12 350.649 2293.12 371.48C2349.31 392.311 2401.63 413.143 2432.54 425.503L2482 445.643" stroke="#585858"/>
<path opacity="0.2" d="M-18 464.381L56.288 414.274L141.828 422.291C182.369 426.3 219.558 414.872 261.782 398.479C304.006 382.086 350.562 360.727 411.945 366.92C514.301 377.302 671.768 443.776 772.735 449.609C833.415 457.536 894.799 450.205 956.182 440.437C1017.57 430.669 1078.25 418.463 1139.63 422.652C1240.6 431.03 1342.95 480.935 1443.22 470.553C1504.6 464.36 1565.98 435.579 1627.37 418.21C1688.75 400.841 1749.43 394.883 1810.82 378.218C1911.78 346.891 2012.75 326.849 2114.4 337.592C2175.79 339.956 2237.17 360.54 2293.52 381.124C2349.16 401.707 2400.48 422.291 2431.17 434.677L2482 455.441" stroke="#585858"/>
<path opacity="0.2" d="M-18 467.774L49.9909 424.826L127.626 431.698C166.543 435.134 201.717 423.749 242.285 408.332C282.853 392.915 328.213 373.467 389.31 379.673C494.306 390.367 658.349 457.295 761.856 461.396C822.35 467.742 883.447 459.888 944.543 450.281C1005.64 440.674 1066.13 429.314 1127.23 433.802C1230.74 442.778 1335.73 494.531 1438.64 483.837C1499.73 477.631 1560.83 449.371 1621.93 430.331C1683.02 411.292 1743.52 401.473 1804.62 384.047C1908.12 350.912 2011.63 333.733 2116.02 346.531C2177.12 350.354 2238.22 370.69 2293.92 391.026C2349.02 411.362 2399.33 431.698 2429.8 444.11L2482 465.498" stroke="#585858"/>
<path opacity="0.2" d="M-18 471.424L43.6938 435.634L113.425 441.36C150.716 444.224 183.875 432.881 222.788 418.441C261.701 404.001 305.865 386.463 366.675 392.682C474.31 403.688 644.929 471.069 750.977 473.44C811.285 478.204 872.094 469.826 932.904 460.381C993.714 450.935 1054.02 440.421 1114.83 445.208C1220.88 454.783 1328.51 508.382 1434.06 497.376C1494.87 491.157 1555.68 463.418 1616.49 442.709C1677.3 421.999 1737.61 408.319 1798.42 390.132C1904.46 355.189 2010.51 340.873 2117.64 355.727C2178.45 361.007 2239.26 381.095 2294.32 401.184C2348.87 421.272 2398.17 441.36 2428.43 453.798L2482 475.81" stroke="#585858"/>
<path opacity="0.2" d="M-18 475.319L37.3967 446.687L99.223 451.268C134.89 453.559 166.033 442.259 203.291 428.795C240.548 415.332 283.517 399.704 344.04 405.935C454.315 417.254 631.51 485.088 740.099 485.728C800.219 488.911 860.742 480.01 921.265 470.726C981.788 461.441 1041.91 451.773 1102.43 456.86C1211.02 467.033 1321.29 522.479 1429.48 511.161C1490 504.929 1550.53 477.711 1611.05 455.331C1671.57 432.952 1731.69 415.41 1792.22 396.462C1900.8 359.711 2009.39 348.258 2119.27 365.169C2179.79 371.906 2240.31 391.746 2294.72 411.587C2348.73 431.427 2397.02 451.268 2427.06 463.732L2482 486.368" stroke="#585858"/>
<path opacity="0.2" d="M-18 479.441L31.0996 457.967L85.0214 461.403C119.063 463.121 148.192 451.864 183.794 439.377C219.396 426.89 261.169 413.172 321.405 419.417C434.319 431.047 618.091 499.335 729.22 498.244C789.154 499.846 849.39 490.421 909.626 481.298C969.862 472.175 1029.8 463.353 1090.03 468.739C1201.16 479.51 1314.08 536.803 1424.9 525.172C1485.14 518.928 1545.37 492.231 1605.61 468.181C1665.85 444.132 1725.78 422.728 1786.02 403.02C1897.14 364.461 2008.27 355.871 2120.89 374.837C2181.12 383.031 2241.36 402.624 2295.12 422.217C2348.58 441.81 2395.87 461.403 2425.69 473.892L2482 497.153" stroke="#585858"/>
<path opacity="0.2" d="M-18 483.77L24.8025 469.454L70.8198 471.744C103.236 472.889 130.35 461.675 164.296 450.165C198.243 438.654 238.821 426.846 298.77 433.104C414.324 445.046 604.672 513.787 718.341 510.966C778.089 510.987 838.038 501.038 897.987 492.076C957.936 483.114 1017.68 475.139 1077.63 480.823C1191.3 492.193 1306.86 551.333 1420.32 539.39C1480.27 533.133 1540.22 506.957 1600.17 481.237C1660.12 455.517 1719.87 430.253 1779.82 409.783C1893.49 369.416 2007.15 363.69 2122.51 384.711C2182.46 394.363 2242.41 413.708 2295.52 433.054C2348.44 452.399 2394.72 471.744 2424.32 484.259L2482 508.144" stroke="#585858"/>
<path opacity="0.2" d="M-18 488.28L18.5054 481.122L56.6182 482.267C87.4099 482.84 112.508 471.668 144.799 461.134C177.09 450.6 216.473 440.702 276.135 446.973C394.329 459.227 591.253 528.422 707.462 523.869C767.024 522.309 826.686 511.837 886.347 503.036C946.009 494.235 1005.57 487.106 1065.23 493.09C1181.44 505.058 1299.64 566.044 1415.75 553.79C1475.41 547.519 1535.07 521.865 1594.73 494.475C1654.39 467.085 1713.95 437.959 1773.62 416.728C1889.83 374.553 2006.04 371.69 2124.13 394.767C2183.79 405.877 2243.45 424.974 2295.92 444.072C2348.29 463.169 2393.57 482.267 2422.95 494.808L2482 519.317" stroke="#585858"/>
<path opacity="0.4" d="M-18 492.948H42.4167C100.75 492.948 134.75 448.433 253.5 461C374.333 473.567 577.833 543.214 696.583 536.931C815.333 530.648 934.083 492.948 1052.83 505.515C1171.58 518.081 1292.42 580.914 1411.17 568.348C1529.92 555.781 1648.67 467.815 1767.42 423.832C1886.17 379.849 2004.92 379.849 2125.75 404.982C2244.5 430.115 2363.25 480.381 2421.58 505.515L2482 530.648" stroke="#585858" stroke-width="2"/>
<path opacity="0.2" d="M-17.166 496.336C44.3141 494.776 48.0284 494.181 51.707 494.125C110.941 494.068 146.965 452.155 263.858 464.719C382.735 477.282 579.151 544.096 694.815 538.204C810.479 532.312 926.104 496.11 1042.84 507.114C1165.6 516.523 1285.37 575.691 1402.4 564.175C1519.44 552.659 1635.73 470.459 1755.52 430.511C1871.44 389.441 1987.5 388.102 2106.33 410.438C2223.18 432.773 2340.81 478.784 2402.32 502.495C2469.38 526.069 2479.29 528.36 2483.05 529.55" stroke="#585858"/>
<path opacity="0.2" d="M-16.334 499.786C46.2097 496.667 53.6382 495.476 60.9954 495.363C121.13 495.25 159.178 455.939 274.214 468.499C391.134 481.06 580.468 545.039 693.045 539.538C805.622 534.038 918.122 499.333 1032.85 508.774C1159.62 515.027 1278.32 570.53 1393.64 560.065C1508.96 549.6 1622.79 473.165 1743.61 437.252C1856.7 399.095 1970.08 396.417 2086.91 415.955C2201.86 435.494 2318.37 477.249 2383.05 499.536C2456.76 521.552 2476.57 526.133 2484.09 528.514" stroke="#585858"/>
<path opacity="0.2" d="M-15.5 503.317C48.1071 498.638 59.25 496.853 70.2857 496.683C131.321 496.513 171.393 459.805 284.571 472.362C399.536 484.919 581.786 546.063 691.277 540.954C800.768 535.845 910.143 502.638 1022.86 510.517C1153.64 513.612 1271.27 565.451 1384.88 556.036C1498.48 546.621 1609.86 475.953 1731.71 444.074C1841.97 408.831 1952.67 404.814 2067.5 421.555C2180.54 438.296 2295.93 475.796 2363.79 496.66C2444.14 517.117 2473.86 523.988 2485.14 527.56" stroke="#585858"/>
<path opacity="0.2" d="M-14.666 506.959C50.0046 500.721 64.8618 498.34 79.576 498.114C141.513 497.888 183.608 463.781 294.929 476.335C407.937 488.889 583.104 547.199 689.509 542.481C795.913 537.764 902.163 506.054 1012.87 512.37C1147.66 512.308 1264.22 560.482 1376.11 552.118C1488 543.754 1596.92 478.851 1719.81 451.008C1827.24 418.678 1935.25 413.321 2048.08 427.265C2159.22 441.208 2273.49 474.453 2344.52 493.894C2431.52 512.792 2471.14 521.954 2486.19 526.716" stroke="#585858"/>
<path opacity="0.2" d="M-13.834 510.755C51.9001 502.958 70.4716 499.982 88.8644 499.699C151.702 499.416 195.821 467.911 305.285 480.462C416.337 493.012 584.42 548.488 687.738 544.162C791.057 539.836 894.182 509.624 1002.87 514.378C1141.68 511.158 1257.17 555.668 1367.35 548.354C1477.53 541.041 1583.98 481.904 1707.91 458.095C1812.51 428.679 1917.83 421.983 2028.66 433.129C2137.9 444.275 2251.05 473.264 2325.25 491.282C2418.9 508.622 2468.43 520.074 2487.24 526.027" stroke="#585858"/>
<path opacity="0.2" d="M-13 514.771C53.7976 505.414 76.0833 501.843 98.1548 501.503C161.893 501.164 208.036 472.261 315.643 484.808C424.738 497.356 585.738 549.997 685.97 546.063C786.202 542.128 886.202 513.414 992.881 516.605C1135.7 510.228 1250.12 551.073 1358.58 544.81C1467.05 538.547 1571.05 485.176 1696.01 465.402C1797.77 438.9 1900.42 430.864 2009.24 439.213C2116.58 447.562 2228.61 472.295 2305.99 488.89C2406.29 504.671 2465.71 518.414 2488.29 525.557" stroke="#585858"/>
<path opacity="0.2" d="M-12.166 519.109C55.6951 508.192 81.6951 504.025 107.445 503.63C172.084 503.234 220.251 476.932 326.001 489.477C433.14 502.021 587.056 551.828 684.202 548.285C781.348 544.742 878.223 517.525 982.889 519.153C1129.72 509.619 1243.07 546.799 1349.82 541.587C1456.57 536.375 1558.11 488.77 1684.11 473.031C1783.04 449.442 1883 440.067 1989.82 445.618C2095.26 451.17 2206.17 471.648 2286.72 486.82C2393.67 501.042 2463 517.075 2489.33 525.409" stroke="#585858"/>
<path opacity="0.2" d="M-11.334 523.923C57.5906 511.447 87.3049 506.685 116.733 506.233C182.273 505.78 232.464 482.081 336.357 494.622C441.539 507.163 588.372 554.136 682.432 550.984C776.491 547.833 870.241 522.114 972.896 522.179C1123.74 509.488 1236.02 543.003 1341.05 538.842C1446.09 534.68 1545.17 492.841 1672.21 481.137C1768.31 460.461 1865.58 449.747 1970.4 452.501C2073.94 455.255 2183.73 471.477 2267.46 485.226C2381.05 497.89 2460.29 516.214 2490.38 525.738" stroke="#585858"/>
<path opacity="0.2" d="M-10.5 529.439C59.4881 515.403 92.9167 510.046 126.024 509.537C192.464 509.028 244.679 487.93 346.714 500.468C449.94 513.006 589.69 557.144 680.664 554.384C771.637 551.624 862.262 527.403 962.905 525.905C1117.76 510.057 1228.97 539.908 1332.29 536.797C1435.61 533.686 1532.24 497.612 1660.31 489.944C1753.58 472.181 1848.17 460.127 1950.99 460.084C2052.62 460.041 2161.29 472.008 2248.19 484.334C2368.43 495.438 2457.57 516.053 2491.43 526.767" stroke="#585858"/>
<path opacity="0.2" d="M-9.66602 535.973C61.3856 520.377 98.5284 514.425 135.314 513.86C202.655 513.294 256.894 494.798 357.072 507.333C458.342 519.868 591.009 561.172 678.896 558.803C766.782 556.434 854.282 533.711 952.913 530.65C1111.78 511.645 1221.92 537.831 1323.53 535.771C1425.14 533.71 1519.3 503.403 1648.41 499.769C1738.85 484.919 1830.75 471.527 1931.57 468.686C2031.3 465.845 2138.85 473.557 2228.93 484.46C2355.81 494.006 2454.86 516.911 2492.48 528.815" stroke="#585858"/>
<path opacity="0.2" d="M-8.83398 544.042C63.2811 526.887 104.138 520.34 144.603 519.718C212.845 519.096 269.106 503.202 367.428 515.734C466.741 528.265 592.325 566.734 677.125 564.757C761.926 562.78 846.301 541.554 942.92 536.931C1105.8 514.768 1214.87 537.29 1314.76 536.28C1414.66 535.27 1506.36 510.729 1636.51 511.13C1724.11 499.193 1813.33 484.461 1912.15 478.823C2009.98 473.185 2116.4 476.641 2209.66 486.121C2343.19 494.109 2452.14 519.304 2493.52 532.399" stroke="#585858"/>
<path opacity="0.2" d="M-8 554.058C65.1786 535.344 109.75 528.201 153.893 527.522C223.036 526.844 281.321 513.552 377.786 526.08C475.143 538.609 593.643 574.244 675.357 572.658C757.071 571.072 838.321 551.344 932.929 545.158C1099.82 519.838 1207.82 538.695 1306 538.736C1404.18 538.777 1493.43 520.001 1624.61 524.437C1709.38 515.414 1795.92 499.343 1892.73 490.907C1988.66 482.472 2093.96 481.673 2190.39 489.73C2330.57 496.158 2449.43 523.644 2494.57 537.93" stroke="#585858"/>
<path opacity="0.2" d="M-7.16602 565.822C67.076 545.548 115.362 537.81 163.183 537.075C233.227 536.34 293.536 525.65 388.143 538.175C483.544 550.7 594.961 583.501 673.589 582.306C752.217 581.112 830.342 562.881 922.937 555.133C1093.84 526.656 1200.77 541.848 1297.24 542.939C1393.7 544.031 1480.49 531.021 1612.71 539.492C1694.65 533.382 1778.5 515.972 1873.32 504.739C1967.34 493.506 2071.52 488.451 2171.13 495.085C2317.95 499.955 2446.71 529.731 2495.62 545.208" stroke="#585858"/>
<path opacity="0.2" d="M-6.33398 578.74C68.9716 556.906 120.972 548.573 172.472 547.781C243.416 546.99 305.749 538.901 398.499 551.424C491.944 563.946 596.277 593.912 671.819 593.109C747.36 592.306 822.36 575.573 912.944 566.262C1087.86 534.627 1193.72 546.155 1288.47 548.297C1383.22 550.439 1467.55 543.195 1600.8 555.701C1679.92 552.505 1761.08 533.755 1853.9 519.725C1946.01 505.694 2049.08 496.384 2151.86 501.595C2305.33 504.906 2444 536.973 2496.67 553.64" stroke="#585858"/>
<path opacity="0.2" d="M-5.5 592.332C70.869 568.939 126.583 560.01 181.762 559.162C253.607 558.314 317.964 552.827 408.857 565.346C500.345 577.865 597.595 604.997 670.051 604.586C742.506 604.174 814.381 588.939 902.952 578.065C1081.88 543.273 1186.67 551.136 1279.71 554.329C1372.74 557.521 1454.62 556.044 1588.9 572.584C1665.19 572.301 1743.67 552.212 1834.48 535.385C1924.69 518.557 2026.64 504.991 2132.6 508.779C2292.71 510.532 2441.29 544.889 2497.71 562.746" stroke="#585858"/>
<path opacity="0.2" d="M-4.66602 606.321C72.7665 581.368 132.195 571.844 191.052 570.94C263.798 570.035 330.179 567.151 419.215 579.666C508.747 592.182 598.913 616.479 668.282 616.459C737.651 616.44 806.401 602.702 892.961 590.265C1075.9 552.316 1179.62 556.514 1270.95 560.758C1362.27 565.001 1441.68 569.289 1577 589.864C1650.46 592.495 1726.25 571.066 1815.06 551.442C1903.37 531.817 2004.2 513.995 2113.33 516.36C2280.1 516.554 2438.57 553.202 2498.76 572.249" stroke="#585858"/>
<path opacity="0.2" d="M-3.83398 620.561C74.662 594.05 137.805 583.93 200.341 582.969C273.987 582.008 342.392 581.725 429.571 594.238C517.146 606.751 600.23 628.213 666.512 628.585C732.795 628.957 798.42 616.716 882.968 602.717C1069.92 561.611 1172.57 562.144 1262.18 567.438C1351.79 572.732 1428.75 582.786 1565.1 607.396C1635.72 612.94 1708.83 590.173 1795.64 567.75C1882.05 545.328 1981.76 523.251 2094.06 524.193C2267.48 522.828 2435.86 561.766 2499.81 582.004" stroke="#585858"/>
<path opacity="0.2" d="M-3 635.091C76.5595 607.02 143.417 596.306 209.631 595.288C284.179 594.27 354.607 596.589 439.929 609.099C525.548 621.608 601.548 640.236 664.744 641C727.94 641.763 790.44 631.02 872.976 615.458C1063.94 571.194 1165.52 568.063 1253.42 574.408C1341.31 580.752 1415.81 596.572 1553.2 625.218C1620.99 633.675 1691.42 609.568 1776.22 584.348C1860.73 559.128 1959.32 532.796 2074.8 532.315C2254.86 529.391 2433.14 570.62 2500.86 592.048" stroke="#585858"/>
<path opacity="0.2" d="M-2.16602 649.682C78.457 620.051 149.028 608.742 218.921 607.667C294.37 606.593 366.822 611.514 450.286 624.021C533.949 636.527 602.866 652.321 662.976 653.475C723.086 654.63 782.461 645.385 862.985 628.26C1057.96 580.839 1158.47 574.044 1244.65 581.439C1330.83 588.834 1402.87 610.42 1541.3 643.1C1606.26 654.47 1674 629.024 1756.81 601.007C1839.41 572.99 1936.88 542.402 2055.53 540.498C2242.24 536.016 2430.43 579.535 2501.91 602.154" stroke="#585858"/>
<path opacity="0.2" d="M-1.33398 664.322C80.3525 633.131 154.638 621.226 228.21 620.095C304.559 618.964 379.035 626.488 460.642 638.991C542.349 651.494 604.182 664.453 661.206 665.999C718.229 667.545 774.479 659.798 852.991 641.11C1051.98 590.532 1151.42 580.072 1235.89 588.518C1320.35 596.964 1389.94 624.315 1529.4 661.03C1591.53 675.314 1656.59 648.529 1737.39 617.714C1818.09 586.9 1914.44 552.057 2036.27 548.73C2229.62 542.688 2427.71 588.498 2502.95 612.307" stroke="#585858"/>
<path opacity="0.2" d="M-0.5 679C165 613.5 311.5 629 471 654C630.5 679 690 694.5 843 654C1249 546.53 1236.5 597.5 1517.5 679C1636.09 713.395 1767 566.5 2017 557C2217 549.4 2425 597.5 2504 622.5" stroke="#585858"/>
<path opacity="0.2" d="M-17.166 810.295C36.3776 842.989 40.0919 842.394 43.7705 842.337C97.0522 876.534 199.901 945.524 302.905 991.79C405.909 1038.06 507.723 1061.37 609.498 1032.92C711.272 1004.47 813.009 924.247 915.858 900.447C1024.73 875.053 1128.62 908.634 1231.77 897.668C1334.92 886.703 1437.32 831.19 1543.21 844.549C1645.24 856.785 1747.42 935.371 1850.38 968.024C1953.34 1000.68 2057.08 987.398 2162.24 958.627C2266.21 929.901 2370.27 884.712 2424.01 862.552C2477.75 840.393 2481.17 841.263 2483.05 841.858" stroke="#585858"/>
<path opacity="0.2" d="M-16.334 797.59C38.67 827.012 46.0986 825.821 53.4557 825.708C107.936 858.136 209.468 924.182 311.309 968.761C413.15 1013.34 512.61 1036 611.993 1009.06C711.376 982.132 810.682 905.607 912.214 881.985C1025.79 855.173 1129.41 886.369 1231.54 876.426C1333.66 866.484 1434.3 815.403 1541.93 830.131C1641.82 842.616 1742.01 915.866 1843.76 945.206C1945.51 974.546 2048.82 959.975 2154.98 932.405C2258.75 904.926 2362.71 862.502 2418.1 842.161C2473.5 821.819 2480.33 823.56 2484.09 824.75" stroke="#585858"/>
<path opacity="0.2" d="M-15.5 784.885C40.9643 811.035 52.1071 809.249 63.1429 809.079C118.821 839.738 219.036 902.841 319.714 945.731C420.393 988.621 517.5 1010.62 614.491 985.206C711.482 959.793 808.357 886.967 908.571 863.522C1026.86 835.294 1130.2 864.104 1231.3 855.185C1332.41 846.265 1431.29 799.616 1540.64 815.713C1638.4 828.446 1736.6 896.361 1837.14 922.387C1937.68 948.414 2040.57 932.552 2147.71 906.184C2251.29 879.95 2355.14 840.293 2412.2 821.769C2469.25 803.245 2479.5 805.856 2485.14 807.642" stroke="#585858"/>
<path opacity="0.2" d="M-14.666 772.18C43.2586 795.058 58.1157 792.677 72.83 792.451C129.707 821.34 228.604 881.5 328.12 922.701C427.636 963.903 522.39 985.242 616.989 961.348C711.588 937.454 806.032 868.327 904.929 845.06C1027.92 815.414 1130.98 841.839 1231.07 833.943C1331.16 826.046 1428.27 783.829 1539.36 801.296C1634.98 814.277 1731.18 876.856 1830.52 899.569C1929.85 922.282 2032.32 905.13 2140.45 879.962C2243.83 854.975 2347.58 818.083 2406.29 801.378C2465 784.672 2478.67 788.153 2486.19 790.534" stroke="#585858"/>
<path opacity="0.2" d="M-13.834 759.475C45.5509 779.08 64.1224 776.104 82.5152 775.821C140.591 802.942 238.17 860.158 336.523 899.671C434.876 939.185 527.277 959.864 619.484 937.49C711.692 915.115 803.706 849.687 901.285 826.597C1028.98 795.534 1131.77 819.574 1230.84 812.701C1329.91 805.828 1425.25 768.041 1538.07 786.878C1631.55 800.107 1725.77 857.351 1823.9 876.751C1922.02 896.151 2024.06 877.707 2133.19 853.74C2236.36 830 2340.02 795.874 2400.38 780.986C2460.75 766.098 2477.83 770.449 2487.24 773.426" stroke="#585858"/>
<path opacity="0.2" d="M-13 746.77C47.8452 763.103 70.1309 759.532 92.2024 759.192C151.476 784.543 247.738 838.817 344.929 876.642C442.119 914.467 532.167 934.486 621.982 913.631C711.798 892.776 801.381 831.047 897.643 808.134C1030.05 775.655 1132.56 797.309 1230.61 791.459C1328.65 785.609 1422.24 752.254 1536.79 772.46C1628.13 785.937 1720.36 837.845 1817.28 853.932C1914.2 870.019 2015.81 850.284 2125.93 827.519C2228.9 805.025 2332.45 773.664 2394.48 760.594C2456.5 747.525 2477 752.746 2488.29 756.317" stroke="#585858"/>
<path opacity="0.2" d="M-12.166 734.355C50.1395 747.415 76.1395 743.249 101.89 742.853C162.362 766.435 257.306 817.765 353.334 853.901C449.362 890.038 537.056 909.398 624.48 890.063C711.903 870.727 799.056 812.696 894.001 789.961C1031.11 756.064 1133.35 775.334 1230.38 770.507C1327.4 765.68 1419.22 736.756 1535.5 758.332C1624.71 772.057 1714.95 818.63 1810.66 831.403C1906.37 844.177 2007.56 823.151 2118.67 801.587C2221.45 780.339 2324.89 751.744 2388.57 740.492C2452.25 729.24 2476.17 735.332 2489.33 739.499" stroke="#585858"/>
<path opacity="0.2" d="M-11.334 727.591C52.4319 737.379 82.1462 732.617 111.575 732.165C173.245 753.978 266.872 802.364 361.737 836.813C456.603 871.261 541.944 889.961 626.976 872.145C712.007 854.33 796.73 799.997 890.357 777.44C1032.17 742.126 1134.13 759.01 1230.14 755.206C1326.15 751.402 1416.21 726.91 1534.21 749.856C1621.29 763.829 1709.53 805.066 1804.04 814.526C1898.54 823.986 1999.3 801.67 2111.4 781.306C2213.98 761.305 2317.32 735.475 2382.66 726.042C2448 716.608 2475.33 723.57 2490.38 728.332" stroke="#585858"/>
<path opacity="0.2" d="M-10.5 721.058C54.7262 727.574 88.1548 722.217 121.262 721.708C184.131 741.752 276.44 787.195 370.143 819.955C463.845 852.715 546.833 870.756 629.473 854.46C712.113 838.163 794.405 787.529 886.714 765.149C1033.24 728.419 1134.92 742.917 1229.91 740.136C1324.9 737.355 1413.19 717.295 1532.93 741.61C1617.86 755.831 1704.12 791.733 1797.42 797.88C1890.71 804.027 1991.05 780.42 2104.14 761.257C2206.52 742.502 2309.76 719.438 2376.76 711.822C2443.75 704.207 2474.5 712.039 2491.43 717.396" stroke="#585858"/>
<path opacity="0.2" d="M-9.66602 714.782C57.0205 718.026 94.1634 712.074 130.949 711.508C195.017 729.782 286.009 772.283 378.548 803.354C471.088 834.426 551.723 851.807 631.971 837.03C712.219 822.253 792.08 775.318 883.072 753.116C1034.3 714.968 1135.71 727.081 1229.68 725.323C1323.65 723.565 1410.18 707.937 1531.64 733.621C1614.44 748.09 1698.71 778.656 1790.8 781.49C1882.88 784.324 1982.79 759.426 2096.88 741.464C2199.06 723.955 2302.2 703.657 2370.85 697.859C2439.5 692.062 2473.67 700.764 2492.48 706.716" stroke="#585858"/>
<path opacity="0.2" d="M-8.83398 708.792C59.3128 708.764 100.17 702.216 140.634 701.594C205.9 718.099 295.575 757.656 386.952 787.039C478.329 816.423 556.61 833.144 634.467 819.887C712.323 806.629 789.753 763.393 879.428 741.368C1035.36 701.803 1136.5 711.531 1229.45 710.796C1322.39 710.062 1407.16 698.864 1530.36 725.918C1611.02 740.636 1693.29 765.866 1784.17 765.387C1875.05 764.907 1974.54 738.718 2089.62 721.958C2191.6 705.695 2294.63 688.163 2364.94 684.183C2435.25 680.203 2472.83 689.776 2493.52 696.323" stroke="#585858"/>
<path opacity="0.2" d="M-8 703.125C61.6071 699.824 106.179 692.682 150.321 692.003C216.786 706.739 305.143 743.352 395.357 771.048C485.571 798.743 561.5 814.804 636.964 803.066C712.429 791.328 787.429 751.791 875.786 729.943C1036.43 688.961 1137.29 696.304 1229.21 696.592C1321.14 696.881 1404.14 690.115 1529.07 718.539C1607.6 733.504 1687.88 753.399 1777.55 749.606C1867.23 745.813 1966.29 718.333 2082.36 702.774C2184.14 687.757 2287.07 672.991 2359.04 670.829C2431 668.667 2472 679.11 2494.57 686.253" stroke="#585858"/>
<path opacity="0.2" d="M-7.16602 697.825C63.9014 691.253 112.187 683.515 160.009 682.779C227.671 695.746 314.711 729.416 403.763 755.423C492.814 781.43 566.39 796.832 639.462 786.614C712.534 776.395 785.104 740.556 872.143 718.886C1037.49 676.487 1138.07 681.444 1228.98 682.756C1319.89 684.067 1401.13 681.733 1527.79 711.526C1604.17 726.74 1682.47 741.299 1770.93 734.193C1859.4 727.087 1958.03 698.316 2075.1 683.958C2176.68 670.187 2279.51 658.187 2353.13 657.843C2426.75 657.499 2471.17 668.812 2495.62 676.55" stroke="#585858"/>
<path opacity="0.2" d="M-6.33398 692.954C66.1938 683.109 118.194 674.776 169.694 673.984C238.555 685.181 324.277 715.909 412.166 740.227C500.055 764.545 571.277 779.288 641.958 770.589C712.638 761.89 782.777 729.749 868.499 708.257C1038.55 664.441 1138.86 667.013 1228.75 669.348C1318.64 671.682 1398.11 673.779 1526.5 704.942C1600.75 720.404 1677.06 729.627 1764.31 719.208C1851.57 708.789 1949.78 678.727 2067.83 665.57C2169.22 653.046 2271.94 643.811 2347.22 645.285C2422.5 646.759 2470.33 658.942 2496.67 667.276" stroke="#585858"/>
<path opacity="0.2" d="M-5.5 688.639C68.4881 675.522 124.202 666.593 179.381 665.745C249.44 675.173 333.845 702.957 420.571 725.587C507.298 748.217 576.167 762.3 644.455 755.121C712.744 747.941 780.452 719.5 864.857 698.185C1039.62 652.951 1139.65 653.138 1228.52 656.496C1317.39 659.854 1395.1 666.382 1525.21 698.915C1597.33 714.624 1671.64 718.512 1757.69 704.78C1843.74 691.048 1941.52 659.695 2060.57 647.738C2161.76 636.461 2264.38 629.991 2341.32 633.283C2418.25 636.576 2469.5 649.629 2497.71 658.558" stroke="#585858"/>
<path opacity="0.2" d="M-4.66602 685.049C70.7824 668.66 130.211 659.136 189.068 658.231C260.326 665.89 343.413 690.731 428.977 711.673C514.54 732.614 581.056 746.038 646.953 740.378C712.85 734.718 778.128 709.974 861.215 688.837C1040.68 642.187 1140.44 639.988 1228.29 644.369C1316.14 648.75 1392.08 659.71 1523.93 693.612C1593.91 709.57 1666.23 708.122 1751.07 691.077C1835.91 674.031 1933.27 641.387 2053.31 630.632C2154.3 620.6 2256.82 616.897 2335.41 622.007C2414 627.117 2468.67 641.041 2498.76 650.565" stroke="#585858"/>
<path opacity="0.2" d="M-3.83398 682.322C73.0747 662.661 136.218 652.542 198.753 651.58C271.21 657.47 352.98 679.368 437.38 698.621C521.781 717.874 585.944 730.638 649.449 726.497C712.954 722.357 775.801 701.312 857.571 680.352C1041.75 632.285 1141.22 627.701 1228.05 633.105C1314.88 638.509 1389.06 653.901 1522.64 689.173C1590.48 705.378 1660.82 698.595 1744.45 678.236C1828.08 657.877 1925.02 623.942 2046.05 614.388C2146.84 605.603 2249.25 604.665 2329.5 611.593C2409.75 618.521 2467.83 633.315 2499.81 643.434" stroke="#585858"/>
<path opacity="0.2" d="M-3 680.485C75.369 657.552 142.226 646.837 208.44 645.819C282.095 649.94 362.548 668.894 445.786 686.459C529.024 704.024 590.833 716.128 651.946 713.507C713.06 710.886 773.476 693.54 853.929 672.758C1042.81 623.274 1142.01 616.305 1227.82 622.732C1313.63 629.159 1386.05 648.982 1521.36 685.623C1587.06 702.076 1655.41 689.958 1737.83 666.286C1820.26 642.614 1916.76 607.388 2038.79 599.035C2139.38 591.496 2241.69 593.324 2323.6 602.07C2405.5 610.816 2467 626.48 2500.86 637.194" stroke="#585858"/>
<path opacity="0.4" d="M-2.16602 679.432C77.6633 653.227 148.235 641.917 218.128 640.843C292.981 643.194 372.116 659.205 454.191 675.082C536.267 690.958 595.723 702.403 654.444 701.301C713.165 700.2 771.151 686.552 850.286 665.947C1043.87 615.046 1142.8 605.692 1227.59 613.142C1312.38 620.592 1383.03 644.847 1520.07 682.857C1583.64 699.559 1650 682.105 1731.21 655.12C1812.43 628.134 1908.51 591.617 2031.52 584.465C2131.92 578.173 2234.13 582.766 2317.69 593.33C2401.25 603.894 2466.17 620.429 2501.91 631.738" stroke="#585858" stroke-width="2"/>
<path opacity="0.2" d="M-1.33398 678.992C79.9557 649.514 154.241 637.609 227.813 636.478C303.864 637.06 381.682 650.128 462.595 664.317C543.507 678.505 600.61 689.29 656.94 689.708C713.269 690.126 768.825 680.177 846.642 659.749C1044.94 607.431 1143.59 595.692 1227.36 604.165C1311.13 612.638 1380.02 641.324 1518.79 680.705C1580.22 697.654 1644.58 674.865 1724.59 644.566C1804.6 614.267 1900.25 576.46 2024.26 570.508C2124.46 565.462 2226.56 572.821 2311.78 585.203C2397 597.586 2465.33 614.99 2502.95 626.895" stroke="#585858"/>
<path opacity="0.4" d="M-18 823L34.0833 858.966C86.1667 894.933 190.333 966.865 294.5 1014.82C398.667 1062.78 502.833 1086.75 607 1056.78C711.167 1026.81 815.333 942.888 919.5 918.91C1023.67 894.933 1127.83 930.899 1232 918.91C1336.17 906.921 1440.33 846.978 1544.5 858.966C1648.67 870.955 1752.83 954.876 1857 990.843C1961.17 1026.81 2065.33 1014.82 2169.5 984.848C2273.67 954.876 2377.83 906.921 2429.92 882.944L2482 858.966" stroke="#585858" stroke-width="2"/>
<path opacity="0.2" d="M-34.5469 833.085C19.0682 867.339 19.72 865.539 20.4536 864.03C70.7905 896.775 170.812 964.064 274.358 1010.9C382.243 1058.89 483.485 1087.7 597.08 1059.16C704.149 1030.61 808.687 947.549 914.54 924.428C1020.39 901.307 1126.15 938.413 1232 928.992C1334.53 918.572 1436.77 862.15 1539.14 873.866C1641.51 885.581 1744.01 965.435 1847.08 999.211C1954.46 1032.45 2058.69 1016.63 2164.54 986.37C2270.39 956.114 2376.15 911.013 2429.12 888.463C2482.1 865.912 2487.36 868.561 2487.36 868.561" stroke="#585858"/>
<path opacity="0.2" d="M-51.0957 843.17C4.05112 875.711 5.35471 872.112 6.82199 869.094C55.4123 898.617 151.289 961.262 254.214 1006.98C365.817 1055.01 464.134 1088.65 587.158 1061.53C697.13 1034.41 802.039 952.21 909.579 929.946C1017.12 907.681 1124.46 945.927 1232 939.074C1332.89 930.223 1433.2 877.322 1533.78 888.765C1634.35 900.207 1735.19 975.994 1837.16 1007.58C1947.75 1038.09 2052.04 1018.43 2159.58 987.893C2267.12 957.352 2374.46 915.105 2428.33 893.982C2482.2 872.858 2492.71 878.155 2492.71 878.155" stroke="#585858"/>
<path opacity="0.2" d="M-67.6426 853.255C-10.964 884.083 -9.00862 878.685 -6.80769 874.158C40.0361 900.459 131.768 958.461 234.072 1003.05C349.393 1051.13 444.786 1089.6 577.238 1063.91C690.113 1038.22 795.393 956.872 904.619 935.464C1013.85 914.056 1122.77 953.442 1232 949.156C1331.26 941.875 1429.63 892.495 1528.41 903.664C1627.19 914.834 1726.38 986.553 1827.24 1015.95C1941.04 1043.74 2045.39 1020.24 2154.62 989.415C2263.85 958.59 2372.77 919.198 2427.54 899.501C2482.3 879.805 2498.07 887.75 2498.07 887.75" stroke="#585858"/>
<path opacity="0.2" d="M-84.1914 863.34C-25.9811 892.456 -23.3739 885.257 -20.4393 879.222C24.6579 902.301 112.245 955.66 213.928 999.131C332.968 1047.25 425.435 1090.55 567.316 1066.28C683.094 1042.02 788.745 961.533 899.658 940.982C1010.57 920.43 1121.09 960.956 1232 959.238C1329.62 953.526 1426.07 907.668 1523.05 918.564C1620.03 929.46 1717.55 997.111 1817.32 1024.31C1934.33 1049.38 2038.75 1022.05 2149.66 990.937C2260.57 959.828 2371.09 923.29 2426.74 905.02C2482.4 886.751 2503.43 897.345 2503.43 897.345" stroke="#585858"/>
<path opacity="0.2" d="M-100.738 873.425C-40.9962 900.828 -37.7372 891.83 -34.069 884.285C9.28172 904.144 92.7242 952.858 193.786 995.209C316.544 1043.37 406.087 1091.49 557.396 1068.66C676.076 1045.82 782.099 966.194 894.698 946.5C1007.3 926.805 1119.4 968.47 1232 969.319C1327.98 965.177 1422.5 922.84 1517.69 933.463C1612.88 944.086 1708.74 1007.67 1807.4 1032.68C1927.62 1055.02 2032.1 1023.85 2144.7 992.459C2257.3 961.066 2369.4 927.382 2425.95 910.539C2482.5 893.697 2508.79 906.939 2508.79 906.939" stroke="#585858"/>
<path opacity="0.2" d="M-117.287 883.51C-56.0133 909.2 -52.1025 898.403 -47.7007 889.349C-6.09644 905.986 73.2013 950.057 173.642 991.287C300.118 1039.49 386.737 1092.44 547.475 1071.03C669.057 1049.63 775.451 970.856 889.737 952.017C1004.02 933.179 1117.71 975.984 1232 979.401C1326.34 976.828 1418.93 938.012 1512.33 948.363C1605.72 958.713 1699.92 1018.23 1797.47 1041.05C1920.91 1060.67 2025.45 1025.66 2139.74 993.982C2254.02 962.304 2367.71 931.474 2425.15 916.058C2482.59 900.643 2514.14 916.534 2514.14 916.534" stroke="#585858"/>
<path opacity="0.2" d="M-133.834 893.595C-71.0284 917.573 -66.4659 904.975 -61.3304 894.413C-21.4726 907.828 53.6802 947.255 153.5 987.364C283.694 1035.61 367.388 1093.39 537.555 1073.41C662.04 1053.43 768.805 975.517 884.777 957.535C1000.75 939.554 1116.03 983.498 1232 989.483C1324.71 988.479 1415.37 953.185 1506.96 963.262C1598.56 973.339 1691.1 1028.79 1787.55 1049.42C1914.2 1066.31 2018.8 1027.47 2134.78 995.504C2250.75 963.542 2366.03 935.566 2424.36 921.577C2482.69 907.589 2519.5 926.128 2519.5 926.128" stroke="#585858"/>
<path opacity="0.2" d="M-150.381 907.884C-86.0436 930.149 -80.8292 915.752 -74.9601 903.68C-36.8489 913.874 34.1592 948.657 133.358 987.645C267.27 1035.94 348.04 1098.54 527.635 1079.99C655.023 1061.43 762.159 984.382 879.817 967.257C997.476 950.131 1114.34 995.216 1232 1003.77C1323.07 1004.33 1411.8 972.561 1501.6 982.365C1591.4 992.169 1682.28 1043.55 1777.63 1061.99C1907.49 1076.16 2012.16 1033.48 2129.82 1001.23C2247.48 968.984 2364.34 943.861 2423.57 931.3C2482.79 918.739 2524.86 939.926 2524.86 939.926" stroke="#585858"/>
<path opacity="0.2" d="M-166.93 922.99C-101.061 943.542 -95.1945 927.346 -88.5917 913.765C-52.227 920.737 14.6362 950.877 113.214 988.744C250.845 1037.08 328.689 1104.51 517.713 1087.39C648.003 1070.26 755.511 994.065 874.856 977.796C994.201 961.527 1112.65 1007.75 1232 1018.87C1321.43 1021.01 1408.23 992.755 1496.24 1002.29C1584.25 1011.82 1673.46 1059.13 1767.71 1075.38C1900.78 1086.82 2005.51 1040.3 2124.86 1007.77C2244.2 975.243 2362.65 952.975 2422.77 941.84C2482.89 930.706 2530.21 954.542 2530.21 954.542" stroke="#585858"/>
<path opacity="0.2" d="M-183.477 938.096C-116.076 956.936 -109.558 938.94 -102.221 923.85C-67.6032 927.601 -4.88484 953.097 93.0715 989.843C234.421 1038.22 309.341 1110.48 507.793 1094.78C640.986 1079.08 748.865 1003.75 869.896 988.335C990.928 972.923 1110.97 1020.29 1232 1033.97C1319.8 1037.68 1404.67 1012.95 1490.88 1022.21C1577.09 1031.46 1664.64 1074.71 1757.79 1088.77C1894.07 1097.49 1998.86 1047.13 2119.9 1014.32C2240.93 981.502 2360.97 962.088 2421.98 952.381C2482.99 942.673 2535.57 969.158 2535.57 969.158" stroke="#585858"/>
<path opacity="0.2" d="M-200.025 953.203C-131.093 970.329 -123.923 950.534 -115.853 933.935C-82.9814 934.464 -24.4079 955.317 72.9275 990.942C217.995 1039.36 289.99 1116.45 497.871 1102.18C633.967 1087.91 742.217 1013.43 864.935 998.874C987.653 984.318 1109.28 1032.82 1232 1049.08C1318.16 1054.35 1401.1 1033.14 1485.52 1042.13C1569.93 1051.11 1655.82 1090.29 1747.87 1102.16C1887.36 1108.15 1992.22 1053.96 2114.93 1020.86C2237.65 987.761 2359.28 971.201 2421.18 962.921C2483.09 954.641 2540.93 983.774 2540.93 983.774" stroke="#585858"/>
<path opacity="0.2" d="M-216.572 968.597C-146.108 984.011 -138.286 962.416 -129.483 944.308C-98.3576 941.615 -43.9289 957.825 52.7854 992.329C201.571 1040.79 270.642 1122.71 487.951 1109.86C626.95 1097.02 735.57 1023.4 859.975 1009.7C984.38 996.002 1107.59 1045.65 1232 1064.47C1316.52 1071.31 1397.53 1053.62 1480.15 1062.34C1562.77 1071.05 1647 1106.16 1737.95 1115.83C1880.65 1119.1 1985.57 1061.07 2109.97 1027.69C2234.38 994.309 2357.59 980.602 2420.39 973.749C2483.19 966.896 2546.28 998.678 2546.28 998.678" stroke="#585858"/>
<path opacity="0.2" d="M-233.121 984.896C-161.125 998.597 -152.652 975.202 -143.114 955.586C-113.736 949.671 -63.4519 961.237 32.6414 994.621C185.145 1043.12 251.291 1129.87 478.029 1118.45C619.93 1107.04 728.922 1034.28 855.014 1021.43C981.105 1008.59 1105.91 1059.37 1232 1080.76C1314.88 1089.18 1393.97 1075.01 1474.79 1083.45C1555.61 1091.89 1638.18 1122.93 1728.03 1130.42C1873.94 1130.96 1978.92 1069.09 2105.01 1035.43C2231.1 1001.76 2355.91 990.908 2419.6 985.482C2483.29 980.056 2551.64 1014.49 2551.64 1014.49" stroke="#585858"/>
<path opacity="0.2" d="M-249.668 1002.23C-176.14 1014.22 -167.015 989.023 -156.744 967.898C-129.112 958.762 -82.9729 965.684 12.4993 997.947C168.722 1046.49 231.943 1138.07 468.109 1128.08C612.913 1118.09 722.276 1046.18 850.054 1034.2C977.832 1022.21 1104.22 1074.14 1232 1098.09C1313.25 1108.08 1390.4 1097.43 1469.43 1105.6C1548.46 1113.76 1629.36 1140.74 1718.11 1146.03C1867.23 1143.85 1972.28 1078.15 2100.05 1044.2C2227.83 1010.25 2354.22 1002.25 2418.8 998.249C2483.39 994.25 2557 1031.33 2557 1031.33" stroke="#585858"/>
<path opacity="0.2" d="M-266.215 1020.62C-191.155 1030.9 -181.378 1003.9 -170.374 981.268C-144.488 968.91 -102.494 971.188 -7.64276 1002.33C152.298 1050.91 212.594 1147.32 458.19 1138.76C605.896 1130.2 715.63 1059.15 845.094 1048.02C974.559 1036.89 1102.53 1089.96 1232 1116.48C1311.61 1128.03 1386.84 1120.91 1464.07 1128.8C1541.3 1136.69 1620.54 1159.6 1708.19 1162.71C1860.52 1157.8 1965.63 1088.26 2095.09 1054.03C2224.56 1019.79 2352.53 1014.65 2418.01 1012.07C2483.49 1009.5 2562.36 1049.23 2562.36 1049.23" stroke="#585858"/>
<path opacity="0.2" d="M-282.764 1039.99C-206.172 1048.56 -195.744 1019.76 -184.005 995.62C-159.866 980.04 -122.017 977.675 -27.7868 1007.7C135.872 1056.32 193.244 1157.56 448.268 1150.42C598.877 1143.29 708.982 1073.1 840.133 1062.83C971.284 1052.56 1100.85 1106.76 1232 1135.85C1309.97 1148.97 1383.27 1145.37 1458.7 1152.99C1534.14 1160.61 1611.72 1179.45 1698.27 1180.36C1853.81 1172.73 1958.98 1099.36 2090.13 1064.84C2221.28 1030.32 2350.85 1028.03 2417.22 1026.88C2483.58 1025.74 2567.71 1068.11 2567.71 1068.11" stroke="#585858"/>
<path opacity="0.2" d="M-299.311 1060.21C-221.188 1067.06 -210.107 1036.47 -197.635 1010.82C-175.243 992.017 -141.538 985.009 -47.9288 1013.91C119.448 1062.58 173.895 1168.64 438.348 1162.93C591.859 1157.22 702.336 1087.9 835.173 1078.48C968.011 1069.07 1099.16 1124.41 1232 1156.07C1308.34 1170.76 1379.7 1170.68 1453.34 1178.02C1526.98 1185.37 1602.9 1200.14 1688.35 1198.87C1847.1 1188.51 1952.34 1111.3 2085.17 1076.49C2218.01 1041.69 2349.16 1042.25 2416.42 1042.54C2483.68 1042.82 2573.07 1087.84 2573.07 1087.84" stroke="#585858"/>
<path opacity="0.2" d="M-315.859 1081.13C-236.205 1086.27 -224.472 1053.88 -211.267 1026.72C-190.621 1004.69 -161.061 993.04 -68.0729 1020.82C103.022 1069.53 154.545 1180.42 428.426 1176.14C584.84 1171.86 695.688 1103.39 830.212 1094.83C964.736 1086.27 1097.47 1142.76 1232 1176.98C1306.7 1193.24 1376.13 1196.68 1447.98 1203.76C1519.82 1210.83 1594.08 1221.53 1678.43 1218.07C1840.39 1204.98 1945.69 1123.94 2080.21 1088.85C2214.74 1053.76 2347.47 1057.18 2415.63 1058.89C2483.78 1060.6 2578.43 1108.27 2578.43 1108.27" stroke="#585858"/>
<path opacity="0.2" d="M-332.406 1102.61C-251.22 1106.04 -238.836 1071.84 -224.896 1043.18C-205.997 1017.93 -180.582 1001.63 -88.215 1028.29C86.5985 1077.04 135.197 1192.77 418.506 1189.91C577.823 1187.06 689.042 1119.45 825.252 1111.75C961.463 1104.04 1095.79 1161.67 1232 1198.46C1305.06 1216.29 1372.57 1223.25 1442.62 1230.05C1512.67 1236.85 1585.26 1243.49 1668.51 1237.83C1833.68 1222.02 1939.04 1137.14 2075.25 1101.77C2211.46 1066.39 2345.79 1072.67 2414.84 1075.8C2483.88 1078.94 2583.78 1129.26 2583.78 1129.26" stroke="#585858"/>
<path opacity="0.2" d="M-348.955 1124.54C-266.237 1126.26 -253.201 1090.26 -238.528 1060.08C-221.375 1031.62 -200.105 1010.68 -108.359 1036.22C70.1728 1085.01 115.846 1205.56 408.584 1204.13C570.804 1202.71 682.394 1135.96 820.291 1129.11C958.187 1122.26 1094.1 1181.03 1232 1220.39C1303.43 1239.79 1369 1250.27 1437.25 1256.8C1505.51 1263.32 1576.44 1265.89 1658.58 1258.04C1826.97 1239.51 1932.39 1150.79 2070.29 1115.13C2208.19 1079.48 2344.1 1088.6 2414.04 1093.17C2483.98 1097.73 2589.14 1150.7 2589.14 1150.7" stroke="#585858"/>
<path opacity="0.2" d="M-365.502 1146.83C-197.002 1146.83 -310.751 995.666 -128.501 1044.5C53.749 1093.33 96.4976 1218.72 398.664 1218.72C563.786 1218.72 675.748 1152.82 815.331 1146.83C954.914 1140.84 1092.41 1200.75 1232 1242.68C1371.58 1284.61 1486.58 1298.7 1648.66 1278.62C1820.26 1257.36 1925.75 1164.8 2065.33 1128.86C2204.91 1092.92 2342.41 1104.9 2413.25 1110.89C2484.08 1116.88 2594.5 1172.5 2594.5 1172.5" stroke="#585858"/>
<path opacity="0.4" d="M-348.979 1161.26C-184.978 1161.04 -287.589 1016.74 -108.311 1062.98C70.9671 1109.21 117.373 1228.41 408.62 1228.41C570.216 1228.41 683.149 1166.59 822.655 1161.89C962.162 1157.19 1099.95 1215.3 1238.29 1255.49C1376.64 1295.67 1496.23 1308.68 1659.91 1288.92C1832.64 1268.04 1941.66 1179.03 2076.97 1144.14C2211.81 1109.39 2344.52 1120.69 2413.41 1126.47C2482.29 1132.25 2588.55 1185.48 2589.12 1185.7" stroke="#585858" stroke-width="2"/>
<path opacity="0.2" d="M-332.455 1175.68C-172.953 1175.25 -264.428 1037.82 -88.1212 1081.46C88.1853 1125.1 138.249 1238.1 418.576 1238.1C576.645 1238.1 690.549 1180.36 829.979 1176.95C969.41 1173.53 1107.49 1229.86 1244.59 1268.3C1381.69 1306.74 1505.88 1318.66 1671.15 1299.22C1845.03 1278.72 1957.57 1193.25 2088.62 1159.42C2218.71 1125.86 2346.63 1136.48 2413.57 1142.05C2480.51 1147.62 2582.59 1198.47 2583.73 1198.9" stroke="#585858"/>
<path opacity="0.2" d="M-315.93 1190.11C-160.927 1189.45 -241.264 1058.9 -67.9293 1099.94C105.405 1140.98 159.126 1247.8 428.534 1247.8C583.077 1247.8 697.952 1194.14 837.306 1192.01C976.659 1189.88 1115.03 1244.42 1250.89 1281.11C1386.75 1317.8 1515.53 1328.65 1682.39 1309.53C1857.41 1289.4 1973.49 1207.48 2100.26 1174.71C2225.61 1142.33 2348.74 1152.27 2413.73 1157.63C2478.72 1163 2576.64 1211.45 2578.36 1212.11" stroke="#585858"/>
<path opacity="0.2" d="M-299.406 1204.54C-148.903 1203.66 -218.102 1079.98 -47.7394 1118.42C122.624 1156.86 180.002 1257.49 438.49 1257.49C589.506 1257.49 705.353 1207.91 844.63 1207.07C983.907 1206.23 1122.57 1258.98 1257.19 1293.93C1391.81 1328.87 1525.18 1338.63 1693.63 1319.83C1869.79 1300.08 1989.4 1221.7 2111.9 1189.99C2232.5 1158.8 2350.85 1168.06 2413.89 1173.22C2476.94 1178.37 2570.69 1224.44 2572.97 1225.31" stroke="#585858"/>
<path opacity="0.2" d="M-282.883 1218.96C-136.878 1217.87 -194.941 1101.06 -27.5495 1136.91C139.842 1172.75 200.877 1267.19 448.446 1267.19C595.936 1267.19 712.754 1221.68 851.954 1222.13C991.154 1222.58 1130.1 1273.54 1263.48 1306.74C1396.86 1339.94 1534.83 1348.62 1704.88 1330.14C1882.18 1310.76 2005.32 1235.93 2123.55 1205.27C2239.4 1175.27 2352.96 1183.85 2414.05 1188.8C2475.15 1193.75 2564.74 1237.43 2567.59 1238.52" stroke="#585858"/>
<path opacity="0.2" d="M-266.359 1233.4C-124.854 1232.09 -171.779 1122.15 -7.35959 1155.39C157.06 1188.64 221.753 1276.89 458.401 1276.89C602.365 1276.89 720.155 1235.46 859.278 1237.2C998.402 1238.93 1137.64 1288.11 1269.78 1319.56C1401.92 1351.01 1544.47 1358.61 1716.12 1340.45C1894.56 1321.44 2021.23 1250.16 2135.19 1220.56C2246.3 1191.75 2355.06 1199.65 2414.21 1204.39C2473.36 1209.12 2558.79 1250.42 2562.21 1251.73" stroke="#585858"/>
<path opacity="0.2" d="M-249.834 1247.83C-112.828 1246.3 -148.616 1143.23 12.8323 1173.88C174.28 1204.53 242.63 1286.59 468.359 1286.59C608.797 1286.59 727.558 1249.24 866.605 1252.26C1005.65 1255.29 1145.18 1302.67 1276.08 1332.38C1406.97 1362.08 1554.12 1368.6 1727.36 1350.76C1906.94 1332.13 2037.15 1264.39 2146.84 1235.85C2253.2 1208.22 2357.17 1215.45 2414.38 1219.97C2471.58 1224.5 2552.84 1263.41 2556.83 1264.94" stroke="#585858"/>
<path opacity="0.2" d="M-233.311 1262.26C-100.803 1260.52 -125.454 1164.32 33.0222 1192.37C191.498 1220.42 263.506 1296.29 478.315 1296.29C615.226 1296.29 734.959 1263.02 873.929 1267.33C1012.9 1271.64 1152.72 1317.24 1282.37 1345.2C1412.03 1373.16 1563.77 1378.59 1738.6 1361.07C1919.32 1342.82 2053.06 1278.62 2158.48 1251.14C2260.09 1224.7 2359.28 1231.25 2414.54 1235.57C2469.79 1239.88 2546.89 1276.41 2551.45 1278.15" stroke="#585858"/>
<path opacity="0.2" d="M-216.787 1276.7C-88.7791 1274.74 -102.292 1185.41 53.2121 1210.87C208.717 1236.32 284.381 1306 488.271 1306C621.656 1306 742.359 1276.81 881.253 1282.4C1020.15 1288 1160.26 1331.82 1288.67 1358.02C1417.08 1384.23 1573.42 1388.59 1749.85 1371.39C1931.71 1353.51 2068.97 1292.86 2170.12 1266.43C2266.99 1241.18 2361.39 1247.05 2414.7 1251.16C2468 1255.27 2540.94 1289.41 2546.07 1291.37" stroke="#585858"/>
<path opacity="0.2" d="M-200.264 1291.15C-76.7548 1288.96 -79.1306 1206.51 73.402 1229.36C225.935 1252.22 305.257 1315.71 498.227 1315.71C628.085 1315.71 749.76 1290.6 888.577 1297.48C1027.39 1304.37 1167.79 1346.39 1294.97 1370.85C1422.14 1395.32 1583.07 1398.59 1761.09 1381.71C1944.09 1364.21 2084.89 1307.1 2181.76 1281.73C2273.89 1257.67 2363.5 1262.86 2414.86 1266.76C2466.22 1270.66 2534.99 1302.41 2540.69 1304.59" stroke="#585858"/>
<path opacity="0.2" d="M-183.738 1305.59C-64.7285 1303.19 -55.967 1227.61 93.5939 1247.87C243.155 1268.12 326.134 1325.43 508.185 1325.43C634.517 1325.43 757.163 1304.39 895.903 1312.56C1034.64 1320.74 1175.33 1360.97 1301.27 1383.69C1427.2 1406.4 1592.72 1408.6 1772.33 1392.04C1956.47 1374.91 2100.8 1321.35 2193.41 1297.04C2280.79 1274.16 2365.61 1278.67 2415.02 1282.36C2464.43 1286.05 2529.04 1315.42 2535.31 1317.82" stroke="#585858"/>
<path opacity="0.2" d="M-167.215 1320.05C-52.7042 1317.43 -32.8054 1248.72 113.784 1266.38C260.373 1284.03 347.01 1335.15 518.141 1335.15C640.946 1335.15 764.564 1318.19 903.228 1327.65C1041.89 1337.11 1182.87 1375.56 1307.56 1396.53C1432.25 1417.5 1602.37 1418.61 1783.57 1402.37C1968.86 1385.62 2116.72 1335.6 2205.05 1312.35C2287.69 1290.66 2367.71 1294.49 2415.18 1297.97C2462.65 1301.45 2523.08 1328.43 2529.93 1331.05" stroke="#585858"/>
<path opacity="0.2" d="M-150.691 1334.51C-40.6799 1331.68 -9.64374 1269.84 133.974 1284.9C277.591 1299.96 367.885 1344.88 528.097 1344.88C647.376 1344.88 771.965 1332 910.552 1342.75C1049.14 1353.5 1190.41 1390.16 1313.86 1409.38C1437.31 1428.6 1612.02 1428.64 1794.82 1412.71C1981.24 1396.34 2132.63 1349.87 2216.7 1327.67C2294.58 1307.17 2369.82 1310.32 2415.34 1313.59C2460.86 1316.87 2517.13 1341.46 2524.55 1344.29" stroke="#585858"/>
<path opacity="0.2" d="M-134.168 1348.99C-28.6555 1345.94 13.5179 1290.97 154.164 1303.43C294.809 1315.89 388.761 1354.63 538.052 1354.63C653.805 1354.63 779.366 1345.83 917.876 1357.86C1056.39 1369.9 1197.95 1404.77 1320.15 1422.25C1442.36 1439.72 1621.67 1438.67 1806.06 1423.07C1993.62 1407.07 2148.54 1364.14 2228.34 1343C2301.48 1323.69 2371.93 1326.16 2415.5 1329.23C2459.07 1332.29 2511.18 1354.49 2519.17 1357.55" stroke="#585858"/>
<path opacity="0.2" d="M-117.643 1363.49C-16.6293 1360.22 36.6815 1312.12 174.356 1321.98C312.03 1331.85 409.638 1364.4 548.01 1364.4C660.236 1364.4 786.769 1359.67 925.202 1372.99C1063.64 1386.32 1205.48 1419.4 1326.45 1435.13C1447.42 1450.86 1631.32 1448.73 1817.3 1433.44C2006.01 1417.82 2164.46 1378.44 2239.98 1358.36C2308.38 1340.24 2374.04 1342.02 2415.66 1344.88C2457.29 1347.74 2505.23 1367.55 2513.79 1370.82" stroke="#585858"/>
<path opacity="0.2" d="M-101.119 1378.02C-4.60495 1374.53 59.8432 1333.3 194.545 1340.57C329.248 1347.83 430.514 1374.2 557.966 1374.2C666.666 1374.2 794.169 1373.54 932.527 1388.16C1070.88 1402.77 1213.02 1434.07 1332.75 1448.05C1452.48 1462.03 1640.96 1458.82 1828.54 1443.85C2018.39 1428.61 2180.37 1392.77 2251.63 1373.74C2315.28 1356.81 2376.15 1357.92 2415.82 1360.56C2455.5 1363.21 2499.28 1380.64 2508.4 1384.13" stroke="#585858"/>
<path opacity="0.2" d="M-84.5957 1392.6C7.41937 1388.89 83.0048 1354.54 214.735 1359.2C346.466 1363.87 451.389 1384.04 567.922 1384.04C673.095 1384.04 801.57 1387.47 939.851 1403.37C1078.13 1419.27 1220.56 1448.78 1339.05 1461.01C1457.53 1473.25 1650.61 1468.95 1839.79 1454.31C2030.77 1439.44 2196.29 1407.15 2263.27 1389.18C2322.17 1373.43 2378.26 1373.86 2415.99 1376.3C2453.71 1378.74 2493.33 1393.78 2503.02 1397.49" stroke="#585858"/>
<path opacity="0.2" d="M-68.0723 1407.28C19.4437 1403.35 106.166 1375.87 234.925 1377.94C363.684 1380.01 472.265 1393.99 577.878 1393.99C679.525 1393.99 808.971 1401.5 947.175 1418.68C1085.38 1435.87 1228.1 1463.59 1345.34 1474.08C1462.59 1484.57 1660.26 1479.19 1851.03 1464.87C2043.15 1450.37 2212.2 1421.62 2274.91 1404.71C2329.07 1390.16 2380.36 1389.9 2416.15 1392.13C2451.93 1394.36 2487.38 1407.02 2497.64 1410.95" stroke="#585858"/>
</g>
<defs>
<clipPath id="clip0_1191_116123">
<rect width="2462" height="1378" fill="white"/>
</clipPath>
</defs>
</svg>
