<svg width="564" height="65" viewBox="0 0 564 65" fill="none" xmlns="http://www.w3.org/2000/svg">
<path d="M563.988 0.819336H540.456L517.367 25.7403L493.11 0.819336H465.021L505.971 40.8347V63.3307H528.205V40.9762L563.988 0.819336Z" fill="white"/>
<path d="M299.075 38.5915C313.551 36.2395 320.689 28.6209 320.689 20.0245C320.689 9.76334 310.272 0.819336 288.353 0.819336H238.898V63.3307H260.963V40.164H275.205L294.992 59.4881C297.456 61.8952 301.501 63.3307 305.82 63.3307H324.474L299.075 38.5915ZM285.587 27.307H261.015V13.7288H285.587C293.362 13.7288 297.965 15.8913 297.965 20.4789C297.965 25.0664 293.362 27.307 285.587 27.307Z" fill="white"/>
<path d="M421.309 37.1112L384.058 0.819336H358.672V63.3313H380.355V22.0193L423.787 63.3313H442.328V0.819336H421.309V37.1112Z" fill="white"/>
<path d="M179.075 37.3633C179.075 46.5396 171.831 50.8289 159.761 50.8289C147.691 50.8289 140.325 46.299 140.325 37.3633V0.819336H118.109V37.3633C118.109 54.8744 133.619 64.7592 159.77 64.7592C185.922 64.7592 200.969 54.8744 200.969 37.3633V0.819336H179.075V37.3633Z" fill="white"/>
<path d="M66.6796 30.7918C74.0247 28.6555 78.1869 24.1608 78.1869 18.7061C78.1869 10.6216 69.9126 0.819336 47.28 0.819336H0.419922V63.3307H48.9786C72.4441 63.3307 81.7444 56.9774 81.7444 45.444C81.7444 37.1585 73.5551 32.404 66.6796 30.7918ZM22.2047 13.5259H43.5725C52.1061 13.5259 55.5222 15.5061 55.5222 19.6366C55.5222 23.7659 52.1061 25.6469 43.5725 25.6469H22.2047V13.5259ZM47.3442 50.6241H22.2047V38.3534H47.3442C54.5979 38.3534 59.0203 39.9566 59.0203 44.5678C59.0203 49.1784 54.4857 50.6241 47.3442 50.6241Z" fill="white"/>
</svg>
