<svg width="409" height="70" viewBox="0 0 409 70" fill="none" xmlns="http://www.w3.org/2000/svg">
<path d="M408.43 0.807373H391.388L374.667 27.403L357.101 0.807373H336.76L366.415 43.5118V67.5195H382.516V43.6627L408.43 0.807373Z" fill="white"/>
<path d="M216.583 41.1178C227.066 38.6078 232.235 30.4772 232.235 21.3031C232.235 10.3524 224.691 0.807373 208.818 0.807373H173.004V67.5195H188.983V42.796H199.296L213.626 63.4187C215.411 65.9875 218.34 67.5195 221.467 67.5195H234.976L216.583 41.1178ZM206.815 29.075H189.02V14.5843H206.815C212.446 14.5843 215.779 16.8922 215.779 21.788C215.779 26.6838 212.446 29.075 206.815 29.075Z" fill="white"/>
<path d="M305.107 39.5378L278.13 0.807129H259.746V67.52H275.448V23.4318L306.902 67.52H320.328V0.807129H305.107V39.5378Z" fill="white"/>
<path d="M129.682 39.8064C129.682 49.5994 124.435 54.1769 115.695 54.1769C106.954 54.1769 101.62 49.3426 101.62 39.8064V0.806641H85.5312V39.8064C85.5312 58.4942 96.7633 69.0432 115.701 69.0432C134.64 69.0432 145.537 58.4942 145.537 39.8064V0.806641H129.682V39.8064Z" fill="white"/>
<path d="M48.2888 32.794C53.608 30.5141 56.6221 25.7173 56.6221 19.8961C56.6221 11.2683 50.6301 0.807373 34.2399 0.807373H0.304688V67.5195H35.4701C52.4633 67.5195 59.1985 60.7393 59.1985 48.4308C59.1985 39.5886 53.2679 34.5145 48.2888 32.794ZM16.0808 14.3678H31.5551C37.7349 14.3678 40.2088 16.481 40.2088 20.8892C40.2088 25.2959 37.7349 27.3033 31.5551 27.3033H16.0808V14.3678ZM34.2864 53.959H16.0808V40.8638H34.2864C39.5394 40.8638 42.742 42.5747 42.742 47.4958C42.742 52.4161 39.4581 53.959 34.2864 53.959Z" fill="white"/>
</svg>
