<svg fill="#C6A47D" version="1.1" id="Capa_1" xmlns="http://www.w3.org/2000/svg" xmlns:xlink="http://www.w3.org/1999/xlink" viewBox="0 0 965.25 965.25" xml:space="preserve" width="64px" height="64px"><g id="SVGRepo_bgCarrier" stroke-width="0"></g><g id="SVGRepo_tracerCarrier" stroke-linecap="round" stroke-linejoin="round"></g><g id="SVGRepo_iconCarrier"> <g> <polygon points="0,238.932 965.25,238.932 482.625,2.332 "></polygon> <rect x="93.559" y="389.189" width="78.428" height="390.143"></rect> <rect x="326.793" y="389.189" width="78.428" height="390.143"></rect> <rect x="560.028" y="389.189" width="78.428" height="390.143"></rect> <rect x="793.262" y="389.189" width="78.428" height="390.143"></rect> <polygon points="913.49,354.189 913.49,275.114 51.759,275.114 51.759,354.189 93.559,354.189 171.987,354.189 326.793,354.189 405.221,354.189 560.028,354.189 638.456,354.189 793.262,354.189 871.69,354.189 "></polygon> <path d="M897.614,869.371H871.69v-55.039h-78.428H638.456h-78.428H405.221h-78.428H171.987H93.559v55.039H67.636 c-24.346,0-44.082,19.736-44.082,44.082v49.465h918.142v-49.465C941.695,889.107,921.959,869.371,897.614,869.371z"></path> </g> </g></svg>